%FSLAX35Y35*%
%MOIN*%
G04 16=Kupferoben/CoppertopL1(X.Top)*
%ADD10C,0.00591*%
%ADD11C,0.00256*%
%ADD12C,0.00384*%
%ADD13C,0.00472*%
%ADD14C,0.00512*%
%ADD15C,0.00768*%
%ADD16C,0.01181*%
%ADD17C,0.02362*%
%ADD18C,0.03937*%
%AMR_19*21,1,0.00787,0.00787,0,0,0.000*%
%ADD19R_19*%
%AMR_20*21,1,0.07087,0.07087,0,0,270.000*%
%ADD20R_20*%
%AMOCT_21*4,1,8,0.023622,0.011811,0.011811,0.023622,-0.011811,0.023622,-0.023622,0.011811,-0.023622,-0.011811,-0.011811,-0.023622,0.011811,-0.023622,0.023622,-0.011811,0.023622,0.011811,0.000*%
%ADD21OCT_21*%
%AMOCT_22*4,1,8,0.031496,0.015748,0.015748,0.031496,-0.015748,0.031496,-0.031496,0.015748,-0.031496,-0.015748,-0.015748,-0.031496,0.015748,-0.031496,0.031496,-0.015748,0.031496,0.015748,0.000*%
%ADD22OCT_22*%
%AMOCT_23*4,1,8,0.033465,0.016732,0.016732,0.033465,-0.016732,0.033465,-0.033465,0.016732,-0.033465,-0.016732,-0.016732,-0.033465,0.016732,-0.033465,0.033465,-0.016732,0.033465,0.016732,90.000*%
%ADD23OCT_23*%
%AMOCT_24*4,1,8,0.035433,0.017717,0.017717,0.035433,-0.017717,0.035433,-0.035433,0.017717,-0.035433,-0.017717,-0.017717,-0.035433,0.017717,-0.035433,0.035433,-0.017717,0.035433,0.017717,0.000*%
%ADD24OCT_24*%
%AMOCT_25*4,1,8,0.035433,0.017717,0.017717,0.035433,-0.017717,0.035433,-0.035433,0.017717,-0.035433,-0.017717,-0.017717,-0.035433,0.017717,-0.035433,0.035433,-0.017717,0.035433,0.017717,270.000*%
%ADD25OCT_25*%
%AMRR_26*21,1,0.06299,0.05039,0,0,0.000*21,1,0.05039,0.06299,0,0,0.000*1,1,0.01260,0.02520,0.02520*1,1,0.01260,-0.02520,-0.02520*1,1,0.01260,0.02520,-0.02520*1,1,0.01260,-0.02520,0.02520*%
%ADD26RR_26*%
G54D10*
X3907Y248848D02*
X3907Y244124D01*
X3916Y244103D01*
X3937Y244094D01*
X3957Y244103D01*
X3966Y244124D01*
X3966Y248848D01*
X3957Y248869D01*
X3937Y248877D01*
X3916Y248869D01*
X3907Y248848D01*
X3907Y244645D02*
X3966Y244645D01*
X3907Y245196D02*
X3966Y245196D01*
X3907Y245748D02*
X3966Y245748D01*
X3907Y246299D02*
X3966Y246299D01*
X3907Y246850D02*
X3966Y246850D01*
X3907Y247401D02*
X3966Y247401D01*
X3907Y247952D02*
X3966Y247952D01*
X3907Y248503D02*
X3966Y248503D01*
X8267Y246515D02*
X3937Y246515D01*
X3916Y246507D01*
X3907Y246486D01*
X3916Y246465D01*
X3937Y246456D01*
X8267Y246456D01*
X8288Y246465D01*
X8297Y246486D01*
X8288Y246507D01*
X8267Y246515D01*
X8297Y244124D02*
X8297Y248848D01*
X8288Y248869D01*
X8267Y248877D01*
X8246Y248869D01*
X8238Y248848D01*
X8238Y244124D01*
X8246Y244103D01*
X8267Y244094D01*
X8288Y244103D01*
X8297Y244124D01*
X8238Y244645D02*
X8297Y244645D01*
X8238Y245196D02*
X8297Y245196D01*
X8238Y245748D02*
X8297Y245748D01*
X8238Y246299D02*
X8297Y246299D01*
X8238Y246850D02*
X8297Y246850D01*
X8238Y247401D02*
X8297Y247401D01*
X8238Y247952D02*
X8297Y247952D01*
X8238Y248503D02*
X8297Y248503D01*
X6080Y251230D02*
X3915Y248868D01*
X3907Y248847D01*
X3917Y248826D01*
X3938Y248818D01*
X3958Y248828D01*
X6124Y251190D01*
X6131Y251211D01*
X6122Y251232D01*
X6101Y251240D01*
X6080Y251230D01*
X4375Y249370D02*
X4455Y249370D01*
X4880Y249921D02*
X4960Y249921D01*
X5385Y250472D02*
X5465Y250472D01*
X5890Y251023D02*
X5971Y251023D01*
X8289Y248868D02*
X6124Y251230D01*
X6103Y251240D01*
X6082Y251232D01*
X6072Y251211D01*
X6080Y251190D01*
X8245Y248828D01*
X8266Y248818D01*
X8287Y248826D01*
X8297Y248847D01*
X8289Y248868D01*
X7749Y249370D02*
X7829Y249370D01*
X7244Y249921D02*
X7324Y249921D01*
X6738Y250472D02*
X6819Y250472D01*
X6233Y251023D02*
X6313Y251023D01*
X9596Y244124D02*
X9596Y251210D01*
X9587Y251231D01*
X9566Y251240D01*
X9546Y251231D01*
X9537Y251210D01*
X9537Y244124D01*
X9546Y244103D01*
X9566Y244094D01*
X9587Y244103D01*
X9596Y244124D01*
X9537Y244645D02*
X9596Y244645D01*
X9537Y245196D02*
X9596Y245196D01*
X9537Y245748D02*
X9596Y245748D01*
X9537Y246299D02*
X9596Y246299D01*
X9537Y246850D02*
X9596Y246850D01*
X9537Y247401D02*
X9596Y247401D01*
X9537Y247952D02*
X9596Y247952D01*
X9537Y248503D02*
X9596Y248503D01*
X9537Y249055D02*
X9596Y249055D01*
X9537Y249606D02*
X9596Y249606D01*
X9537Y250157D02*
X9596Y250157D01*
X9537Y250708D02*
X9596Y250708D01*
X12793Y250049D02*
X9545Y246506D01*
X9537Y246484D01*
X9546Y246464D01*
X9568Y246456D01*
X9588Y246466D01*
X12836Y250009D01*
X12844Y250030D01*
X12834Y250051D01*
X12813Y250059D01*
X12793Y250049D01*
X10005Y247007D02*
X10085Y247007D01*
X10510Y247559D02*
X10590Y247559D01*
X11015Y248110D02*
X11095Y248110D01*
X11520Y248661D02*
X11600Y248661D01*
X12026Y249212D02*
X12106Y249212D01*
X12531Y249763D02*
X12611Y249763D01*
X13922Y244140D02*
X11215Y248274D01*
X11196Y248286D01*
X11174Y248282D01*
X11162Y248263D01*
X11166Y248241D01*
X13872Y244107D01*
X13891Y244095D01*
X13913Y244099D01*
X13926Y244117D01*
X13922Y244140D01*
X13520Y244646D02*
X13590Y244646D01*
X13159Y245197D02*
X13230Y245197D01*
X12798Y245748D02*
X12869Y245748D01*
X12437Y246299D02*
X12508Y246299D01*
X12076Y246851D02*
X12147Y246851D01*
X11715Y247402D02*
X11786Y247402D01*
X11355Y247953D02*
X11425Y247953D01*
X15226Y245305D02*
X15226Y251210D01*
X15217Y251231D01*
X15196Y251240D01*
X15175Y251231D01*
X15167Y251210D01*
X15167Y245305D01*
X15175Y245284D01*
X15196Y245275D01*
X15217Y245284D01*
X15226Y245305D01*
X15167Y245826D02*
X15226Y245826D01*
X15167Y246377D02*
X15226Y246377D01*
X15167Y246929D02*
X15226Y246929D01*
X15167Y247480D02*
X15226Y247480D01*
X15167Y248031D02*
X15226Y248031D01*
X15167Y248582D02*
X15226Y248582D01*
X15167Y249133D02*
X15226Y249133D01*
X15167Y249685D02*
X15226Y249685D01*
X15167Y250236D02*
X15226Y250236D01*
X15167Y250787D02*
X15226Y250787D01*
X16301Y244143D02*
X15218Y245325D01*
X15198Y245334D01*
X15176Y245326D01*
X15167Y245306D01*
X15175Y245285D01*
X16257Y244104D01*
X16278Y244094D01*
X16299Y244102D01*
X16309Y244122D01*
X16301Y244143D01*
X15761Y244645D02*
X15841Y244645D01*
X15256Y245196D02*
X15336Y245196D01*
X19527Y244153D02*
X16279Y244153D01*
X16258Y244144D01*
X16250Y244124D01*
X16258Y244103D01*
X16279Y244094D01*
X19527Y244094D01*
X19548Y244103D01*
X19557Y244124D01*
X19548Y244144D01*
X19527Y244153D01*
X17362Y248287D02*
X15196Y248287D01*
X15175Y248278D01*
X15167Y248257D01*
X15175Y248236D01*
X15196Y248228D01*
X17362Y248228D01*
X17383Y248236D01*
X17391Y248257D01*
X17383Y248278D01*
X17362Y248287D01*
X20856Y245305D02*
X20856Y248257D01*
X20847Y248278D01*
X20826Y248287D01*
X20805Y248278D01*
X20797Y248257D01*
X20797Y245305D01*
X20805Y245284D01*
X20826Y245275D01*
X20847Y245284D01*
X20856Y245305D01*
X20797Y245826D02*
X20856Y245826D01*
X20797Y246377D02*
X20856Y246377D01*
X20797Y246929D02*
X20856Y246929D01*
X20797Y247480D02*
X20856Y247480D01*
X20797Y248031D02*
X20856Y248031D01*
X21931Y244143D02*
X20848Y245325D01*
X20828Y245334D01*
X20806Y245326D01*
X20797Y245306D01*
X20805Y245285D01*
X21887Y244104D01*
X21908Y244094D01*
X21929Y244102D01*
X21938Y244122D01*
X21931Y244143D01*
X21391Y244645D02*
X21471Y244645D01*
X20885Y245196D02*
X20966Y245196D01*
X24074Y244153D02*
X21909Y244153D01*
X21888Y244144D01*
X21879Y244124D01*
X21888Y244103D01*
X21909Y244094D01*
X24074Y244094D01*
X24095Y244103D01*
X24104Y244124D01*
X24095Y244144D01*
X24074Y244153D01*
X25135Y245325D02*
X24053Y244143D01*
X24045Y244122D01*
X24054Y244102D01*
X24076Y244094D01*
X24096Y244104D01*
X25179Y245285D01*
X25186Y245306D01*
X25177Y245326D01*
X25156Y245334D01*
X25135Y245325D01*
X24512Y244645D02*
X24593Y244645D01*
X25018Y245196D02*
X25098Y245196D01*
X25187Y244124D02*
X25187Y248257D01*
X25178Y248278D01*
X25157Y248287D01*
X25136Y248278D01*
X25127Y248257D01*
X25127Y244124D01*
X25136Y244103D01*
X25157Y244094D01*
X25178Y244103D01*
X25187Y244124D01*
X25127Y244645D02*
X25187Y244645D01*
X25127Y245196D02*
X25187Y245196D01*
X25127Y245748D02*
X25187Y245748D01*
X25127Y246299D02*
X25187Y246299D01*
X25127Y246850D02*
X25187Y246850D01*
X25127Y247401D02*
X25187Y247401D01*
X25127Y247952D02*
X25187Y247952D01*
X29718Y244098D02*
X30801Y244688D01*
X30815Y244706D01*
X30813Y244728D01*
X30795Y244742D01*
X30773Y244740D01*
X29690Y244149D01*
X29676Y244132D01*
X29678Y244109D01*
X29696Y244095D01*
X29718Y244098D01*
X30601Y244646D02*
X30724Y244646D01*
X27539Y244094D02*
X29704Y244094D01*
X29725Y244103D01*
X29734Y244124D01*
X29725Y244144D01*
X29704Y244153D01*
X27539Y244153D01*
X27518Y244144D01*
X27509Y244124D01*
X27518Y244103D01*
X27539Y244094D01*
X26434Y245285D02*
X27517Y244104D01*
X27538Y244094D01*
X27559Y244102D01*
X27568Y244122D01*
X27561Y244143D01*
X26478Y245325D01*
X26457Y245334D01*
X26436Y245326D01*
X26427Y245306D01*
X26434Y245285D01*
X27021Y244645D02*
X27101Y244645D01*
X26515Y245196D02*
X26595Y245196D01*
X26427Y247076D02*
X26427Y245305D01*
X26435Y245284D01*
X26456Y245275D01*
X26477Y245284D01*
X26486Y245305D01*
X26486Y247076D01*
X26477Y247097D01*
X26456Y247106D01*
X26435Y247097D01*
X26427Y247076D01*
X26427Y245826D02*
X26486Y245826D01*
X26427Y246377D02*
X26486Y246377D01*
X26427Y246929D02*
X26486Y246929D01*
X27517Y248277D02*
X26434Y247096D01*
X26427Y247075D01*
X26436Y247055D01*
X26457Y247047D01*
X26478Y247056D01*
X27561Y248237D01*
X27568Y248259D01*
X27559Y248279D01*
X27538Y248287D01*
X27517Y248277D01*
X26894Y247598D02*
X26974Y247598D01*
X27400Y248149D02*
X27480Y248149D01*
X29704Y248287D02*
X27539Y248287D01*
X27518Y248278D01*
X27509Y248257D01*
X27518Y248236D01*
X27539Y248228D01*
X29704Y248228D01*
X29725Y248236D01*
X29734Y248257D01*
X29725Y248278D01*
X29704Y248287D01*
X30801Y247693D02*
X29718Y248283D01*
X29696Y248286D01*
X29678Y248272D01*
X29676Y248249D01*
X29690Y248231D01*
X30773Y247641D01*
X30795Y247638D01*
X30813Y247653D01*
X30815Y247675D01*
X30801Y247693D01*
X29767Y248190D02*
X29890Y248190D01*
X30816Y247076D02*
X30816Y247667D01*
X30808Y247688D01*
X30787Y247696D01*
X30766Y247688D01*
X30757Y247667D01*
X30757Y247076D01*
X30766Y247055D01*
X30787Y247047D01*
X30808Y247055D01*
X30816Y247076D01*
X30757Y247598D02*
X30816Y247598D01*
X29718Y246460D02*
X30801Y247050D01*
X30815Y247068D01*
X30813Y247090D01*
X30795Y247105D01*
X30773Y247102D01*
X29690Y246512D01*
X29676Y246494D01*
X29678Y246472D01*
X29696Y246457D01*
X29718Y246460D01*
X30601Y247009D02*
X30724Y247009D01*
X26456Y246456D02*
X29704Y246456D01*
X29725Y246465D01*
X29734Y246486D01*
X29725Y246507D01*
X29704Y246515D01*
X26456Y246515D01*
X26435Y246507D01*
X26427Y246486D01*
X26435Y246465D01*
X26456Y246456D01*
X36417Y244153D02*
X32086Y244153D01*
X32065Y244144D01*
X32057Y244124D01*
X32065Y244103D01*
X32086Y244094D01*
X36417Y244094D01*
X36438Y244103D01*
X36446Y244124D01*
X36438Y244144D01*
X36417Y244153D01*
X34251Y251240D02*
X33169Y251240D01*
X33148Y251231D01*
X33139Y251210D01*
X33148Y251189D01*
X33169Y251181D01*
X34251Y251181D01*
X34272Y251189D01*
X34281Y251210D01*
X34272Y251231D01*
X34251Y251240D01*
X34281Y244124D02*
X34281Y251210D01*
X34272Y251231D01*
X34251Y251240D01*
X34231Y251231D01*
X34222Y251210D01*
X34222Y244124D01*
X34231Y244103D01*
X34251Y244094D01*
X34272Y244103D01*
X34281Y244124D01*
X34222Y244645D02*
X34281Y244645D01*
X34222Y245196D02*
X34281Y245196D01*
X34222Y245748D02*
X34281Y245748D01*
X34222Y246299D02*
X34281Y246299D01*
X34222Y246850D02*
X34281Y246850D01*
X34222Y247401D02*
X34281Y247401D01*
X34222Y247952D02*
X34281Y247952D01*
X34222Y248503D02*
X34281Y248503D01*
X34222Y249055D02*
X34281Y249055D01*
X34222Y249606D02*
X34281Y249606D01*
X34222Y250157D02*
X34281Y250157D01*
X34222Y250708D02*
X34281Y250708D01*
X42047Y244153D02*
X37716Y244153D01*
X37695Y244144D01*
X37687Y244124D01*
X37695Y244103D01*
X37716Y244094D01*
X42047Y244094D01*
X42068Y244103D01*
X42076Y244124D01*
X42068Y244144D01*
X42047Y244153D01*
X39881Y251240D02*
X38799Y251240D01*
X38778Y251231D01*
X38769Y251210D01*
X38778Y251189D01*
X38799Y251181D01*
X39881Y251181D01*
X39902Y251189D01*
X39911Y251210D01*
X39902Y251231D01*
X39881Y251240D01*
X39911Y244124D02*
X39911Y251210D01*
X39902Y251231D01*
X39881Y251240D01*
X39861Y251231D01*
X39852Y251210D01*
X39852Y244124D01*
X39861Y244103D01*
X39881Y244094D01*
X39902Y244103D01*
X39911Y244124D01*
X39852Y244645D02*
X39911Y244645D01*
X39852Y245196D02*
X39911Y245196D01*
X39852Y245748D02*
X39911Y245748D01*
X39852Y246299D02*
X39911Y246299D01*
X39852Y246850D02*
X39911Y246850D01*
X39852Y247401D02*
X39911Y247401D01*
X39852Y247952D02*
X39911Y247952D01*
X39852Y248503D02*
X39911Y248503D01*
X39852Y249055D02*
X39911Y249055D01*
X39852Y249606D02*
X39911Y249606D01*
X39852Y250157D02*
X39911Y250157D01*
X39852Y250708D02*
X39911Y250708D01*
X46608Y244098D02*
X47691Y244688D01*
X47705Y244706D01*
X47703Y244728D01*
X47685Y244742D01*
X47663Y244740D01*
X46580Y244149D01*
X46566Y244132D01*
X46568Y244109D01*
X46586Y244095D01*
X46608Y244098D01*
X47491Y244646D02*
X47614Y244646D01*
X44429Y244094D02*
X46594Y244094D01*
X46615Y244103D01*
X46624Y244124D01*
X46615Y244144D01*
X46594Y244153D01*
X44429Y244153D01*
X44408Y244144D01*
X44399Y244124D01*
X44408Y244103D01*
X44429Y244094D01*
X43324Y245285D02*
X44407Y244104D01*
X44427Y244094D01*
X44449Y244102D01*
X44458Y244122D01*
X44450Y244143D01*
X43368Y245325D01*
X43347Y245334D01*
X43326Y245326D01*
X43316Y245306D01*
X43324Y245285D01*
X43910Y244645D02*
X43990Y244645D01*
X43405Y245196D02*
X43485Y245196D01*
X43316Y247076D02*
X43316Y245305D01*
X43325Y245284D01*
X43346Y245275D01*
X43367Y245284D01*
X43375Y245305D01*
X43375Y247076D01*
X43367Y247097D01*
X43346Y247106D01*
X43325Y247097D01*
X43316Y247076D01*
X43316Y245826D02*
X43375Y245826D01*
X43316Y246377D02*
X43375Y246377D01*
X43316Y246929D02*
X43375Y246929D01*
X44407Y248277D02*
X43324Y247096D01*
X43316Y247075D01*
X43326Y247055D01*
X43347Y247047D01*
X43368Y247056D01*
X44450Y248237D01*
X44458Y248259D01*
X44449Y248279D01*
X44427Y248287D01*
X44407Y248277D01*
X43784Y247598D02*
X43864Y247598D01*
X44289Y248149D02*
X44369Y248149D01*
X46594Y248287D02*
X44429Y248287D01*
X44408Y248278D01*
X44399Y248257D01*
X44408Y248236D01*
X44429Y248228D01*
X46594Y248228D01*
X46615Y248236D01*
X46624Y248257D01*
X46615Y248278D01*
X46594Y248287D01*
X47691Y247693D02*
X46608Y248283D01*
X46586Y248286D01*
X46568Y248272D01*
X46566Y248249D01*
X46580Y248231D01*
X47663Y247641D01*
X47685Y247638D01*
X47703Y247653D01*
X47705Y247675D01*
X47691Y247693D01*
X46656Y248190D02*
X46780Y248190D01*
X47706Y247076D02*
X47706Y247667D01*
X47698Y247688D01*
X47677Y247696D01*
X47656Y247688D01*
X47647Y247667D01*
X47647Y247076D01*
X47656Y247055D01*
X47677Y247047D01*
X47698Y247055D01*
X47706Y247076D01*
X47647Y247598D02*
X47706Y247598D01*
X46608Y246460D02*
X47691Y247050D01*
X47705Y247068D01*
X47703Y247090D01*
X47685Y247105D01*
X47663Y247102D01*
X46580Y246512D01*
X46566Y246494D01*
X46568Y246472D01*
X46586Y246457D01*
X46608Y246460D01*
X47491Y247009D02*
X47614Y247009D01*
X43346Y246456D02*
X46594Y246456D01*
X46615Y246465D01*
X46624Y246486D01*
X46615Y246507D01*
X46594Y246515D01*
X43346Y246515D01*
X43325Y246507D01*
X43316Y246486D01*
X43325Y246465D01*
X43346Y246456D01*
X52765Y244153D02*
X48976Y244153D01*
X48955Y244144D01*
X48946Y244124D01*
X48955Y244103D01*
X48976Y244094D01*
X52765Y244094D01*
X52786Y244103D01*
X52795Y244124D01*
X52786Y244144D01*
X52765Y244153D01*
X53280Y245317D02*
X52738Y244136D01*
X52738Y244113D01*
X52753Y244097D01*
X52776Y244096D01*
X52792Y244111D01*
X53333Y245292D01*
X53334Y245315D01*
X53319Y245331D01*
X53296Y245332D01*
X53280Y245317D01*
X52973Y244647D02*
X53038Y244647D01*
X53225Y245198D02*
X53290Y245198D01*
X52738Y246473D02*
X53280Y245292D01*
X53296Y245277D01*
X53319Y245278D01*
X53334Y245294D01*
X53333Y245317D01*
X52792Y246498D01*
X52776Y246513D01*
X52753Y246513D01*
X52738Y246496D01*
X52738Y246473D01*
X53034Y245828D02*
X53099Y245828D01*
X52782Y246379D02*
X52847Y246379D01*
X49517Y246456D02*
X52765Y246456D01*
X52786Y246465D01*
X52795Y246486D01*
X52786Y246507D01*
X52765Y246515D01*
X49517Y246515D01*
X49496Y246507D01*
X49488Y246486D01*
X49496Y246465D01*
X49517Y246456D01*
X48949Y247655D02*
X49490Y246473D01*
X49507Y246458D01*
X49530Y246459D01*
X49545Y246475D01*
X49544Y246498D01*
X49003Y247679D01*
X48986Y247695D01*
X48964Y247694D01*
X48948Y247677D01*
X48949Y247655D01*
X49245Y247009D02*
X49310Y247009D01*
X48992Y247560D02*
X49057Y247560D01*
X49495Y248277D02*
X48954Y247687D01*
X48946Y247666D01*
X48956Y247645D01*
X48977Y247637D01*
X48998Y247647D01*
X49539Y248237D01*
X49547Y248259D01*
X49537Y248279D01*
X49516Y248287D01*
X49495Y248277D01*
X49414Y248189D02*
X49494Y248189D01*
X53307Y248287D02*
X49517Y248287D01*
X49496Y248278D01*
X49488Y248257D01*
X49496Y248236D01*
X49517Y248228D01*
X53307Y248228D01*
X53327Y248236D01*
X53336Y248257D01*
X53327Y248278D01*
X53307Y248287D01*
X60265Y244124D02*
X60265Y251210D01*
X60257Y251231D01*
X60236Y251240D01*
X60215Y251231D01*
X60206Y251210D01*
X60206Y244124D01*
X60215Y244103D01*
X60236Y244094D01*
X60257Y244103D01*
X60265Y244124D01*
X60206Y244645D02*
X60265Y244645D01*
X60206Y245196D02*
X60265Y245196D01*
X60206Y245748D02*
X60265Y245748D01*
X60206Y246299D02*
X60265Y246299D01*
X60206Y246850D02*
X60265Y246850D01*
X60206Y247401D02*
X60265Y247401D01*
X60206Y247952D02*
X60265Y247952D01*
X60206Y248503D02*
X60265Y248503D01*
X60206Y249055D02*
X60265Y249055D01*
X60206Y249606D02*
X60265Y249606D01*
X60206Y250157D02*
X60265Y250157D01*
X60206Y250708D02*
X60265Y250708D01*
X62942Y247696D02*
X60236Y247696D01*
X60215Y247688D01*
X60206Y247667D01*
X60215Y247646D01*
X60236Y247637D01*
X62942Y247637D01*
X62963Y247646D01*
X62972Y247667D01*
X62963Y247688D01*
X62942Y247696D01*
X64011Y248283D02*
X62928Y247693D01*
X62914Y247675D01*
X62916Y247653D01*
X62934Y247638D01*
X62957Y247641D01*
X64039Y248231D01*
X64053Y248249D01*
X64051Y248272D01*
X64033Y248286D01*
X64011Y248283D01*
X63839Y248190D02*
X63963Y248190D01*
X64540Y249451D02*
X63998Y248270D01*
X63997Y248247D01*
X64013Y248231D01*
X64035Y248230D01*
X64052Y248245D01*
X64593Y249426D01*
X64594Y249449D01*
X64579Y249465D01*
X64556Y249466D01*
X64540Y249451D01*
X64233Y248781D02*
X64298Y248781D01*
X64485Y249332D02*
X64550Y249332D01*
X63998Y250607D02*
X64540Y249426D01*
X64556Y249411D01*
X64579Y249412D01*
X64594Y249428D01*
X64593Y249451D01*
X64052Y250632D01*
X64035Y250647D01*
X64013Y250646D01*
X63997Y250630D01*
X63998Y250607D01*
X64294Y249962D02*
X64359Y249962D01*
X64041Y250513D02*
X64106Y250513D01*
X62928Y251184D02*
X64011Y250594D01*
X64033Y250591D01*
X64051Y250605D01*
X64053Y250628D01*
X64039Y250646D01*
X62957Y251236D01*
X62934Y251238D01*
X62916Y251224D01*
X62914Y251202D01*
X62928Y251184D01*
X63005Y251142D02*
X63128Y251142D01*
X60236Y251181D02*
X62942Y251181D01*
X62963Y251189D01*
X62972Y251210D01*
X62963Y251231D01*
X62942Y251240D01*
X60236Y251240D01*
X60215Y251231D01*
X60206Y251210D01*
X60215Y251189D01*
X60236Y251181D01*
X65895Y244124D02*
X65895Y248257D01*
X65887Y248278D01*
X65866Y248287D01*
X65845Y248278D01*
X65836Y248257D01*
X65836Y244124D01*
X65845Y244103D01*
X65866Y244094D01*
X65887Y244103D01*
X65895Y244124D01*
X65836Y244645D02*
X65895Y244645D01*
X65836Y245196D02*
X65895Y245196D01*
X65836Y245748D02*
X65895Y245748D01*
X65836Y246299D02*
X65895Y246299D01*
X65836Y246850D02*
X65895Y246850D01*
X65836Y247401D02*
X65895Y247401D01*
X65836Y247952D02*
X65895Y247952D01*
X67468Y248277D02*
X65844Y246506D01*
X65836Y246484D01*
X65846Y246464D01*
X65867Y246456D01*
X65887Y246466D01*
X67511Y248237D01*
X67519Y248259D01*
X67510Y248279D01*
X67488Y248287D01*
X67468Y248277D01*
X66304Y247007D02*
X66384Y247007D01*
X66809Y247559D02*
X66889Y247559D01*
X67314Y248110D02*
X67394Y248110D01*
X70196Y248287D02*
X67490Y248287D01*
X67469Y248278D01*
X67460Y248257D01*
X67469Y248236D01*
X67490Y248228D01*
X70196Y248228D01*
X70217Y248236D01*
X70226Y248257D01*
X70217Y248278D01*
X70196Y248287D01*
X71525Y245305D02*
X71525Y247076D01*
X71516Y247097D01*
X71496Y247106D01*
X71475Y247097D01*
X71466Y247076D01*
X71466Y245305D01*
X71475Y245284D01*
X71496Y245275D01*
X71516Y245284D01*
X71525Y245305D01*
X71466Y245826D02*
X71525Y245826D01*
X71466Y246377D02*
X71525Y246377D01*
X71466Y246929D02*
X71525Y246929D01*
X72556Y248277D02*
X71474Y247096D01*
X71466Y247075D01*
X71476Y247055D01*
X71497Y247047D01*
X71517Y247056D01*
X72600Y248237D01*
X72608Y248259D01*
X72598Y248279D01*
X72577Y248287D01*
X72556Y248277D01*
X71934Y247598D02*
X72014Y247598D01*
X72439Y248149D02*
X72519Y248149D01*
X74744Y248287D02*
X72578Y248287D01*
X72557Y248278D01*
X72549Y248257D01*
X72557Y248236D01*
X72578Y248228D01*
X74744Y248228D01*
X74764Y248236D01*
X74773Y248257D01*
X74764Y248278D01*
X74744Y248287D01*
X75848Y247096D02*
X74765Y248277D01*
X74745Y248287D01*
X74724Y248279D01*
X74714Y248259D01*
X74722Y248237D01*
X75805Y247056D01*
X75825Y247047D01*
X75846Y247055D01*
X75856Y247075D01*
X75848Y247096D01*
X75308Y247598D02*
X75388Y247598D01*
X74803Y248149D02*
X74883Y248149D01*
X75856Y245305D02*
X75856Y247076D01*
X75847Y247097D01*
X75826Y247106D01*
X75805Y247097D01*
X75797Y247076D01*
X75797Y245305D01*
X75805Y245284D01*
X75826Y245275D01*
X75847Y245284D01*
X75856Y245305D01*
X75797Y245826D02*
X75856Y245826D01*
X75797Y246377D02*
X75856Y246377D01*
X75797Y246929D02*
X75856Y246929D01*
X74765Y244104D02*
X75848Y245285D01*
X75856Y245306D01*
X75846Y245326D01*
X75825Y245334D01*
X75805Y245325D01*
X74722Y244143D01*
X74714Y244122D01*
X74724Y244102D01*
X74745Y244094D01*
X74765Y244104D01*
X75182Y244645D02*
X75262Y244645D01*
X75687Y245196D02*
X75767Y245196D01*
X72578Y244094D02*
X74744Y244094D01*
X74764Y244103D01*
X74773Y244124D01*
X74764Y244144D01*
X74744Y244153D01*
X72578Y244153D01*
X72557Y244144D01*
X72549Y244124D01*
X72557Y244103D01*
X72578Y244094D01*
X71474Y245285D02*
X72556Y244104D01*
X72577Y244094D01*
X72598Y244102D01*
X72608Y244122D01*
X72600Y244143D01*
X71517Y245325D01*
X71497Y245334D01*
X71476Y245326D01*
X71466Y245306D01*
X71474Y245285D01*
X72060Y244645D02*
X72140Y244645D01*
X71555Y245196D02*
X71635Y245196D01*
X80374Y241791D02*
X77125Y241791D01*
X77105Y241782D01*
X77096Y241761D01*
X77105Y241740D01*
X77125Y241732D01*
X80374Y241732D01*
X80394Y241740D01*
X80403Y241761D01*
X80394Y241782D01*
X80374Y241791D01*
X81434Y242962D02*
X80352Y241781D01*
X80344Y241760D01*
X80354Y241740D01*
X80375Y241732D01*
X80395Y241741D01*
X81478Y242922D01*
X81486Y242944D01*
X81476Y242964D01*
X81455Y242972D01*
X81434Y242962D01*
X80812Y242283D02*
X80892Y242283D01*
X81317Y242834D02*
X81397Y242834D01*
X81427Y248257D02*
X81427Y242942D01*
X81435Y242922D01*
X81456Y242913D01*
X81477Y242922D01*
X81486Y242942D01*
X81486Y248257D01*
X81477Y248278D01*
X81456Y248287D01*
X81435Y248278D01*
X81427Y248257D01*
X81427Y243464D02*
X81486Y243464D01*
X81427Y244015D02*
X81486Y244015D01*
X81427Y244566D02*
X81486Y244566D01*
X81427Y245118D02*
X81486Y245118D01*
X81427Y245669D02*
X81486Y245669D01*
X81427Y246220D02*
X81486Y246220D01*
X81427Y246771D02*
X81486Y246771D01*
X81427Y247322D02*
X81486Y247322D01*
X81427Y247874D02*
X81486Y247874D01*
X79832Y248228D02*
X81456Y248228D01*
X81477Y248236D01*
X81486Y248257D01*
X81477Y248278D01*
X81456Y248287D01*
X79832Y248287D01*
X79811Y248278D01*
X79803Y248257D01*
X79811Y248236D01*
X79832Y248228D01*
X81486Y250620D02*
X81486Y251210D01*
X81477Y251231D01*
X81456Y251240D01*
X81435Y251231D01*
X81427Y251210D01*
X81427Y250620D01*
X81435Y250599D01*
X81456Y250590D01*
X81477Y250599D01*
X81486Y250620D01*
X81427Y251141D02*
X81486Y251141D01*
X86018Y244098D02*
X87100Y244688D01*
X87114Y244706D01*
X87112Y244728D01*
X87094Y244742D01*
X87072Y244740D01*
X85989Y244149D01*
X85975Y244132D01*
X85978Y244109D01*
X85995Y244095D01*
X86018Y244098D01*
X86900Y244646D02*
X87024Y244646D01*
X83838Y244094D02*
X86003Y244094D01*
X86024Y244103D01*
X86033Y244124D01*
X86024Y244144D01*
X86003Y244153D01*
X83838Y244153D01*
X83817Y244144D01*
X83809Y244124D01*
X83817Y244103D01*
X83838Y244094D01*
X82734Y245285D02*
X83816Y244104D01*
X83837Y244094D01*
X83858Y244102D01*
X83868Y244122D01*
X83860Y244143D01*
X82777Y245325D01*
X82757Y245334D01*
X82735Y245326D01*
X82726Y245306D01*
X82734Y245285D01*
X83320Y244645D02*
X83400Y244645D01*
X82815Y245196D02*
X82895Y245196D01*
X82726Y247076D02*
X82726Y245305D01*
X82735Y245284D01*
X82755Y245275D01*
X82776Y245284D01*
X82785Y245305D01*
X82785Y247076D01*
X82776Y247097D01*
X82755Y247106D01*
X82735Y247097D01*
X82726Y247076D01*
X82726Y245826D02*
X82785Y245826D01*
X82726Y246377D02*
X82785Y246377D01*
X82726Y246929D02*
X82785Y246929D01*
X83816Y248277D02*
X82734Y247096D01*
X82726Y247075D01*
X82735Y247055D01*
X82757Y247047D01*
X82777Y247056D01*
X83860Y248237D01*
X83868Y248259D01*
X83858Y248279D01*
X83837Y248287D01*
X83816Y248277D01*
X83194Y247598D02*
X83274Y247598D01*
X83699Y248149D02*
X83779Y248149D01*
X86003Y248287D02*
X83838Y248287D01*
X83817Y248278D01*
X83809Y248257D01*
X83817Y248236D01*
X83838Y248228D01*
X86003Y248228D01*
X86024Y248236D01*
X86033Y248257D01*
X86024Y248278D01*
X86003Y248287D01*
X87100Y247693D02*
X86018Y248283D01*
X85995Y248286D01*
X85978Y248272D01*
X85975Y248249D01*
X85989Y248231D01*
X87072Y247641D01*
X87094Y247638D01*
X87112Y247653D01*
X87114Y247675D01*
X87100Y247693D01*
X86066Y248190D02*
X86189Y248190D01*
X87116Y247076D02*
X87116Y247667D01*
X87107Y247688D01*
X87086Y247696D01*
X87065Y247688D01*
X87057Y247667D01*
X87057Y247076D01*
X87065Y247055D01*
X87086Y247047D01*
X87107Y247055D01*
X87116Y247076D01*
X87057Y247598D02*
X87116Y247598D01*
X86018Y246460D02*
X87100Y247050D01*
X87114Y247068D01*
X87112Y247090D01*
X87094Y247105D01*
X87072Y247102D01*
X85989Y246512D01*
X85975Y246494D01*
X85978Y246472D01*
X85995Y246457D01*
X86018Y246460D01*
X86900Y247009D02*
X87024Y247009D01*
X82755Y246456D02*
X86003Y246456D01*
X86024Y246465D01*
X86033Y246486D01*
X86024Y246507D01*
X86003Y246515D01*
X82755Y246515D01*
X82735Y246507D01*
X82726Y246486D01*
X82735Y246465D01*
X82755Y246456D01*
X88415Y244124D02*
X88415Y251210D01*
X88406Y251231D01*
X88385Y251240D01*
X88364Y251231D01*
X88356Y251210D01*
X88356Y244124D01*
X88364Y244103D01*
X88385Y244094D01*
X88406Y244103D01*
X88415Y244124D01*
X88356Y244645D02*
X88415Y244645D01*
X88356Y245196D02*
X88415Y245196D01*
X88356Y245748D02*
X88415Y245748D01*
X88356Y246299D02*
X88415Y246299D01*
X88356Y246850D02*
X88415Y246850D01*
X88356Y247401D02*
X88415Y247401D01*
X88356Y247952D02*
X88415Y247952D01*
X88356Y248503D02*
X88415Y248503D01*
X88356Y249055D02*
X88415Y249055D01*
X88356Y249606D02*
X88415Y249606D01*
X88356Y250157D02*
X88415Y250157D01*
X88356Y250708D02*
X88415Y250708D01*
X91612Y250049D02*
X88364Y246506D01*
X88356Y246484D01*
X88365Y246464D01*
X88387Y246456D01*
X88407Y246466D01*
X91655Y250009D01*
X91663Y250030D01*
X91653Y250051D01*
X91632Y250059D01*
X91612Y250049D01*
X88823Y247007D02*
X88904Y247007D01*
X89329Y247559D02*
X89409Y247559D01*
X89834Y248110D02*
X89914Y248110D01*
X90339Y248661D02*
X90419Y248661D01*
X90844Y249212D02*
X90925Y249212D01*
X91350Y249763D02*
X91430Y249763D01*
X92741Y244140D02*
X90034Y248274D01*
X90015Y248286D01*
X89993Y248282D01*
X89980Y248263D01*
X89985Y248241D01*
X92691Y244107D01*
X92710Y244095D01*
X92732Y244099D01*
X92745Y244117D01*
X92741Y244140D01*
X92339Y244646D02*
X92409Y244646D01*
X91978Y245197D02*
X92048Y245197D01*
X91617Y245748D02*
X91688Y245748D01*
X91256Y246299D02*
X91327Y246299D01*
X90895Y246851D02*
X90966Y246851D01*
X90534Y247402D02*
X90605Y247402D01*
X90173Y247953D02*
X90244Y247953D01*
X94045Y245305D02*
X94045Y251210D01*
X94036Y251231D01*
X94015Y251240D01*
X93994Y251231D01*
X93986Y251210D01*
X93986Y245305D01*
X93994Y245284D01*
X94015Y245275D01*
X94036Y245284D01*
X94045Y245305D01*
X93986Y245826D02*
X94045Y245826D01*
X93986Y246377D02*
X94045Y246377D01*
X93986Y246929D02*
X94045Y246929D01*
X93986Y247480D02*
X94045Y247480D01*
X93986Y248031D02*
X94045Y248031D01*
X93986Y248582D02*
X94045Y248582D01*
X93986Y249133D02*
X94045Y249133D01*
X93986Y249685D02*
X94045Y249685D01*
X93986Y250236D02*
X94045Y250236D01*
X93986Y250787D02*
X94045Y250787D01*
X95120Y244143D02*
X94037Y245325D01*
X94017Y245334D01*
X93995Y245326D01*
X93986Y245306D01*
X93993Y245285D01*
X95076Y244104D01*
X95097Y244094D01*
X95118Y244102D01*
X95127Y244122D01*
X95120Y244143D01*
X94580Y244645D02*
X94660Y244645D01*
X94074Y245196D02*
X94155Y245196D01*
X98346Y244153D02*
X95098Y244153D01*
X95077Y244144D01*
X95068Y244124D01*
X95077Y244103D01*
X95098Y244094D01*
X98346Y244094D01*
X98367Y244103D01*
X98375Y244124D01*
X98367Y244144D01*
X98346Y244153D01*
X96181Y248287D02*
X94015Y248287D01*
X93994Y248278D01*
X93986Y248257D01*
X93994Y248236D01*
X94015Y248228D01*
X96181Y248228D01*
X96201Y248236D01*
X96210Y248257D01*
X96201Y248278D01*
X96181Y248287D01*
X107467Y244137D02*
X105301Y248271D01*
X105284Y248286D01*
X105261Y248284D01*
X105247Y248266D01*
X105249Y248244D01*
X107414Y244110D01*
X107432Y244095D01*
X107454Y244097D01*
X107469Y244115D01*
X107467Y244137D01*
X107133Y244647D02*
X107200Y244647D01*
X106844Y245198D02*
X106911Y245198D01*
X106556Y245749D02*
X106622Y245749D01*
X106267Y246300D02*
X106334Y246300D01*
X105978Y246851D02*
X106045Y246851D01*
X105690Y247402D02*
X105756Y247402D01*
X105401Y247954D02*
X105468Y247954D01*
X109580Y248271D02*
X107414Y244137D01*
X107412Y244115D01*
X107427Y244097D01*
X107449Y244095D01*
X107467Y244110D01*
X109632Y248244D01*
X109634Y248266D01*
X109620Y248284D01*
X109597Y248286D01*
X109580Y248271D01*
X107681Y244647D02*
X107748Y244647D01*
X107970Y245198D02*
X108036Y245198D01*
X108258Y245749D02*
X108325Y245749D01*
X108547Y246300D02*
X108614Y246300D01*
X108836Y246851D02*
X108903Y246851D01*
X109125Y247402D02*
X109191Y247402D01*
X109413Y247954D02*
X109480Y247954D01*
X110935Y245305D02*
X110935Y247076D01*
X110926Y247097D01*
X110905Y247106D01*
X110884Y247097D01*
X110875Y247076D01*
X110875Y245305D01*
X110884Y245284D01*
X110905Y245275D01*
X110926Y245284D01*
X110935Y245305D01*
X110875Y245826D02*
X110935Y245826D01*
X110875Y246377D02*
X110935Y246377D01*
X110875Y246929D02*
X110935Y246929D01*
X111966Y248277D02*
X110883Y247096D01*
X110876Y247075D01*
X110885Y247055D01*
X110906Y247047D01*
X110927Y247056D01*
X112009Y248237D01*
X112017Y248259D01*
X112008Y248279D01*
X111986Y248287D01*
X111966Y248277D01*
X111343Y247598D02*
X111423Y247598D01*
X111848Y248149D02*
X111929Y248149D01*
X114153Y248287D02*
X111988Y248287D01*
X111967Y248278D01*
X111958Y248257D01*
X111967Y248236D01*
X111988Y248228D01*
X114153Y248228D01*
X114174Y248236D01*
X114183Y248257D01*
X114174Y248278D01*
X114153Y248287D01*
X115257Y247096D02*
X114175Y248277D01*
X114154Y248287D01*
X114133Y248279D01*
X114124Y248259D01*
X114131Y248237D01*
X115214Y247056D01*
X115234Y247047D01*
X115256Y247055D01*
X115265Y247075D01*
X115257Y247096D01*
X114717Y247598D02*
X114798Y247598D01*
X114212Y248149D02*
X114292Y248149D01*
X115265Y245305D02*
X115265Y247076D01*
X115257Y247097D01*
X115236Y247106D01*
X115215Y247097D01*
X115206Y247076D01*
X115206Y245305D01*
X115215Y245284D01*
X115236Y245275D01*
X115257Y245284D01*
X115265Y245305D01*
X115206Y245826D02*
X115265Y245826D01*
X115206Y246377D02*
X115265Y246377D01*
X115206Y246929D02*
X115265Y246929D01*
X114175Y244104D02*
X115257Y245285D01*
X115265Y245306D01*
X115256Y245326D01*
X115234Y245334D01*
X115214Y245325D01*
X114131Y244143D01*
X114124Y244122D01*
X114133Y244102D01*
X114154Y244094D01*
X114175Y244104D01*
X114591Y244645D02*
X114671Y244645D01*
X115096Y245196D02*
X115177Y245196D01*
X111988Y244094D02*
X114153Y244094D01*
X114174Y244103D01*
X114183Y244124D01*
X114174Y244144D01*
X114153Y244153D01*
X111988Y244153D01*
X111967Y244144D01*
X111958Y244124D01*
X111967Y244103D01*
X111988Y244094D01*
X110883Y245285D02*
X111966Y244104D01*
X111986Y244094D01*
X112008Y244102D01*
X112017Y244122D01*
X112009Y244143D01*
X110927Y245325D01*
X110906Y245334D01*
X110885Y245326D01*
X110876Y245306D01*
X110883Y245285D01*
X111469Y244645D02*
X111550Y244645D01*
X110964Y245196D02*
X111044Y245196D01*
X116505Y248257D02*
X116505Y244124D01*
X116514Y244103D01*
X116535Y244094D01*
X116556Y244103D01*
X116564Y244124D01*
X116564Y248257D01*
X116556Y248278D01*
X116535Y248287D01*
X116514Y248278D01*
X116505Y248257D01*
X116505Y244645D02*
X116564Y244645D01*
X116505Y245196D02*
X116564Y245196D01*
X116505Y245748D02*
X116564Y245748D01*
X116505Y246299D02*
X116564Y246299D01*
X116505Y246850D02*
X116564Y246850D01*
X116505Y247401D02*
X116564Y247401D01*
X116505Y247952D02*
X116564Y247952D01*
X117596Y248277D02*
X116513Y247096D01*
X116505Y247075D01*
X116515Y247055D01*
X116536Y247047D01*
X116557Y247056D01*
X117639Y248237D01*
X117647Y248259D01*
X117638Y248279D01*
X117616Y248287D01*
X117596Y248277D01*
X116973Y247598D02*
X117053Y247598D01*
X117478Y248149D02*
X117558Y248149D01*
X119783Y248287D02*
X117618Y248287D01*
X117597Y248278D01*
X117588Y248257D01*
X117597Y248236D01*
X117618Y248228D01*
X119783Y248228D01*
X119804Y248236D01*
X119812Y248257D01*
X119804Y248278D01*
X119783Y248287D01*
X120887Y247096D02*
X119805Y248277D01*
X119784Y248287D01*
X119763Y248279D01*
X119753Y248259D01*
X119761Y248237D01*
X120844Y247056D01*
X120864Y247047D01*
X120886Y247055D01*
X120895Y247075D01*
X120887Y247096D01*
X120347Y247598D02*
X120427Y247598D01*
X119842Y248149D02*
X119922Y248149D01*
X120895Y244124D02*
X120895Y247076D01*
X120887Y247097D01*
X120866Y247106D01*
X120845Y247097D01*
X120836Y247076D01*
X120836Y244124D01*
X120845Y244103D01*
X120866Y244094D01*
X120887Y244103D01*
X120895Y244124D01*
X120836Y244645D02*
X120895Y244645D01*
X120836Y245196D02*
X120895Y245196D01*
X120836Y245748D02*
X120895Y245748D01*
X120836Y246299D02*
X120895Y246299D01*
X120836Y246850D02*
X120895Y246850D01*
X132125Y251240D02*
X127795Y251240D01*
X127774Y251231D01*
X127765Y251210D01*
X127774Y251189D01*
X127795Y251181D01*
X132125Y251181D01*
X132146Y251189D01*
X132155Y251210D01*
X132146Y251231D01*
X132125Y251240D01*
X129990Y244124D02*
X129990Y251210D01*
X129981Y251231D01*
X129960Y251240D01*
X129939Y251231D01*
X129931Y251210D01*
X129931Y244124D01*
X129939Y244103D01*
X129960Y244094D01*
X129981Y244103D01*
X129990Y244124D01*
X129931Y244645D02*
X129990Y244645D01*
X129931Y245196D02*
X129990Y245196D01*
X129931Y245748D02*
X129990Y245748D01*
X129931Y246299D02*
X129990Y246299D01*
X129931Y246850D02*
X129990Y246850D01*
X129931Y247401D02*
X129990Y247401D01*
X129931Y247952D02*
X129990Y247952D01*
X129931Y248503D02*
X129990Y248503D01*
X129931Y249055D02*
X129990Y249055D01*
X129931Y249606D02*
X129990Y249606D01*
X129931Y250157D02*
X129990Y250157D01*
X129931Y250708D02*
X129990Y250708D01*
X133395Y248848D02*
X133395Y244124D01*
X133404Y244103D01*
X133425Y244094D01*
X133446Y244103D01*
X133454Y244124D01*
X133454Y248848D01*
X133446Y248869D01*
X133425Y248877D01*
X133404Y248869D01*
X133395Y248848D01*
X133395Y244645D02*
X133454Y244645D01*
X133395Y245196D02*
X133454Y245196D01*
X133395Y245748D02*
X133454Y245748D01*
X133395Y246299D02*
X133454Y246299D01*
X133395Y246850D02*
X133454Y246850D01*
X133395Y247401D02*
X133454Y247401D01*
X133395Y247952D02*
X133454Y247952D01*
X133395Y248503D02*
X133454Y248503D01*
X137755Y246515D02*
X133425Y246515D01*
X133404Y246507D01*
X133395Y246486D01*
X133404Y246465D01*
X133425Y246456D01*
X137755Y246456D01*
X137776Y246465D01*
X137785Y246486D01*
X137776Y246507D01*
X137755Y246515D01*
X137785Y244124D02*
X137785Y248848D01*
X137776Y248869D01*
X137755Y248877D01*
X137735Y248869D01*
X137726Y248848D01*
X137726Y244124D01*
X137735Y244103D01*
X137755Y244094D01*
X137776Y244103D01*
X137785Y244124D01*
X137726Y244645D02*
X137785Y244645D01*
X137726Y245196D02*
X137785Y245196D01*
X137726Y245748D02*
X137785Y245748D01*
X137726Y246299D02*
X137785Y246299D01*
X137726Y246850D02*
X137785Y246850D01*
X137726Y247401D02*
X137785Y247401D01*
X137726Y247952D02*
X137785Y247952D01*
X137726Y248503D02*
X137785Y248503D01*
X135568Y251230D02*
X133403Y248868D01*
X133395Y248847D01*
X133405Y248826D01*
X133426Y248818D01*
X133446Y248828D01*
X135612Y251190D01*
X135620Y251211D01*
X135610Y251232D01*
X135589Y251240D01*
X135568Y251230D01*
X133863Y249370D02*
X133943Y249370D01*
X134368Y249921D02*
X134448Y249921D01*
X134873Y250472D02*
X134953Y250472D01*
X135379Y251023D02*
X135459Y251023D01*
X137777Y248868D02*
X135612Y251230D01*
X135591Y251240D01*
X135570Y251232D01*
X135561Y251211D01*
X135568Y251190D01*
X137734Y248828D01*
X137754Y248818D01*
X137775Y248826D01*
X137785Y248847D01*
X137777Y248868D01*
X137237Y249370D02*
X137317Y249370D01*
X136732Y249921D02*
X136812Y249921D01*
X136227Y250472D02*
X136307Y250472D01*
X135721Y251023D02*
X135802Y251023D01*
X139084Y244124D02*
X139084Y251210D01*
X139075Y251231D01*
X139055Y251240D01*
X139034Y251231D01*
X139025Y251210D01*
X139025Y244124D01*
X139034Y244103D01*
X139055Y244094D01*
X139075Y244103D01*
X139084Y244124D01*
X139025Y244645D02*
X139084Y244645D01*
X139025Y245196D02*
X139084Y245196D01*
X139025Y245748D02*
X139084Y245748D01*
X139025Y246299D02*
X139084Y246299D01*
X139025Y246850D02*
X139084Y246850D01*
X139025Y247401D02*
X139084Y247401D01*
X139025Y247952D02*
X139084Y247952D01*
X139025Y248503D02*
X139084Y248503D01*
X139025Y249055D02*
X139084Y249055D01*
X139025Y249606D02*
X139084Y249606D01*
X139025Y250157D02*
X139084Y250157D01*
X139025Y250708D02*
X139084Y250708D01*
X141761Y247696D02*
X139055Y247696D01*
X139034Y247688D01*
X139025Y247667D01*
X139034Y247646D01*
X139055Y247637D01*
X141761Y247637D01*
X141782Y247646D01*
X141791Y247667D01*
X141782Y247688D01*
X141761Y247696D01*
X142830Y248283D02*
X141747Y247693D01*
X141733Y247675D01*
X141735Y247653D01*
X141753Y247638D01*
X141775Y247641D01*
X142858Y248231D01*
X142872Y248249D01*
X142870Y248272D01*
X142852Y248286D01*
X142830Y248283D01*
X142658Y248190D02*
X142782Y248190D01*
X143358Y249451D02*
X142817Y248270D01*
X142816Y248247D01*
X142832Y248231D01*
X142854Y248230D01*
X142871Y248245D01*
X143412Y249426D01*
X143413Y249449D01*
X143398Y249465D01*
X143375Y249466D01*
X143358Y249451D01*
X143051Y248781D02*
X143116Y248781D01*
X143304Y249332D02*
X143369Y249332D01*
X142817Y250607D02*
X143358Y249426D01*
X143375Y249411D01*
X143398Y249412D01*
X143413Y249428D01*
X143412Y249451D01*
X142871Y250632D01*
X142854Y250647D01*
X142832Y250646D01*
X142816Y250630D01*
X142817Y250607D01*
X143113Y249962D02*
X143178Y249962D01*
X142860Y250513D02*
X142925Y250513D01*
X141747Y251184D02*
X142830Y250594D01*
X142852Y250591D01*
X142870Y250605D01*
X142872Y250628D01*
X142858Y250646D01*
X141775Y251236D01*
X141753Y251238D01*
X141735Y251224D01*
X141733Y251202D01*
X141747Y251184D01*
X141824Y251142D02*
X141947Y251142D01*
X139055Y251181D02*
X141761Y251181D01*
X141782Y251189D01*
X141791Y251210D01*
X141782Y251231D01*
X141761Y251240D01*
X139055Y251240D01*
X139034Y251231D01*
X139025Y251210D01*
X139034Y251189D01*
X139055Y251181D01*
X143411Y244139D02*
X141245Y247682D01*
X141227Y247696D01*
X141205Y247692D01*
X141191Y247674D01*
X141195Y247651D01*
X143360Y244108D01*
X143378Y244095D01*
X143401Y244098D01*
X143414Y244117D01*
X143411Y244139D01*
X143031Y244646D02*
X143101Y244646D01*
X142695Y245197D02*
X142764Y245197D01*
X142358Y245748D02*
X142427Y245748D01*
X142021Y246300D02*
X142090Y246300D01*
X141684Y246851D02*
X141753Y246851D01*
X141347Y247402D02*
X141416Y247402D01*
X145240Y250594D02*
X146323Y251184D01*
X146337Y251202D01*
X146334Y251224D01*
X146317Y251238D01*
X146294Y251236D01*
X145212Y250646D01*
X145198Y250628D01*
X145200Y250605D01*
X145218Y250591D01*
X145240Y250594D01*
X146123Y251142D02*
X146246Y251142D01*
X144711Y249426D02*
X145253Y250607D01*
X145254Y250630D01*
X145238Y250646D01*
X145216Y250647D01*
X145199Y250632D01*
X144658Y249451D01*
X144657Y249428D01*
X144672Y249412D01*
X144695Y249411D01*
X144711Y249426D01*
X144892Y249962D02*
X144957Y249962D01*
X145145Y250513D02*
X145210Y250513D01*
X144714Y245895D02*
X144714Y249438D01*
X144705Y249459D01*
X144685Y249468D01*
X144664Y249459D01*
X144655Y249438D01*
X144655Y245895D01*
X144664Y245874D01*
X144685Y245866D01*
X144705Y245874D01*
X144714Y245895D01*
X144655Y246417D02*
X144714Y246417D01*
X144655Y246968D02*
X144714Y246968D01*
X144655Y247519D02*
X144714Y247519D01*
X144655Y248070D02*
X144714Y248070D01*
X144655Y248622D02*
X144714Y248622D01*
X144655Y249173D02*
X144714Y249173D01*
X145253Y244726D02*
X144711Y245907D01*
X144695Y245923D01*
X144672Y245922D01*
X144657Y245905D01*
X144658Y245883D01*
X145199Y244702D01*
X145216Y244686D01*
X145238Y244687D01*
X145254Y244704D01*
X145253Y244726D01*
X144953Y245238D02*
X145018Y245238D01*
X144701Y245789D02*
X144766Y245789D01*
X146323Y244149D02*
X145240Y244740D01*
X145218Y244742D01*
X145200Y244728D01*
X145198Y244706D01*
X145212Y244688D01*
X146294Y244098D01*
X146317Y244095D01*
X146334Y244109D01*
X146337Y244132D01*
X146323Y244149D01*
X145288Y244646D02*
X145412Y244646D01*
X147391Y244153D02*
X146309Y244153D01*
X146288Y244144D01*
X146279Y244124D01*
X146288Y244103D01*
X146309Y244094D01*
X147391Y244094D01*
X147412Y244103D01*
X147421Y244124D01*
X147412Y244144D01*
X147391Y244153D01*
X148460Y244740D02*
X147377Y244149D01*
X147363Y244132D01*
X147365Y244109D01*
X147383Y244095D01*
X147405Y244098D01*
X148488Y244688D01*
X148502Y244706D01*
X148500Y244728D01*
X148482Y244742D01*
X148460Y244740D01*
X148288Y244646D02*
X148411Y244646D01*
X148988Y245907D02*
X148447Y244726D01*
X148446Y244704D01*
X148462Y244687D01*
X148484Y244686D01*
X148501Y244702D01*
X149042Y245883D01*
X149043Y245905D01*
X149028Y245922D01*
X149005Y245923D01*
X148988Y245907D01*
X148681Y245238D02*
X148746Y245238D01*
X148934Y245789D02*
X148999Y245789D01*
X148986Y247667D02*
X148986Y245895D01*
X148994Y245874D01*
X149015Y245866D01*
X149036Y245874D01*
X149045Y245895D01*
X149045Y247667D01*
X149036Y247688D01*
X149015Y247696D01*
X148994Y247688D01*
X148986Y247667D01*
X148986Y246417D02*
X149045Y246417D01*
X148986Y246968D02*
X149045Y246968D01*
X148986Y247519D02*
X149045Y247519D01*
X147933Y247637D02*
X149015Y247637D01*
X149036Y247646D01*
X149045Y247667D01*
X149036Y247688D01*
X149015Y247696D01*
X147933Y247696D01*
X147912Y247688D01*
X147903Y247667D01*
X147912Y247646D01*
X147933Y247637D01*
X147391Y251240D02*
X146309Y251240D01*
X146288Y251231D01*
X146279Y251210D01*
X146288Y251189D01*
X146309Y251181D01*
X147391Y251181D01*
X147412Y251189D01*
X147421Y251210D01*
X147412Y251231D01*
X147391Y251240D01*
X148488Y250646D02*
X147405Y251236D01*
X147383Y251238D01*
X147365Y251224D01*
X147363Y251202D01*
X147377Y251184D01*
X148460Y250594D01*
X148482Y250591D01*
X148500Y250605D01*
X148502Y250628D01*
X148488Y250646D01*
X147454Y251142D02*
X147577Y251142D01*
X150344Y244124D02*
X150344Y251210D01*
X150335Y251231D01*
X150314Y251240D01*
X150294Y251231D01*
X150285Y251210D01*
X150285Y244124D01*
X150294Y244103D01*
X150314Y244094D01*
X150335Y244103D01*
X150344Y244124D01*
X150285Y244645D02*
X150344Y244645D01*
X150285Y245196D02*
X150344Y245196D01*
X150285Y245748D02*
X150344Y245748D01*
X150285Y246299D02*
X150344Y246299D01*
X150285Y246850D02*
X150344Y246850D01*
X150285Y247401D02*
X150344Y247401D01*
X150285Y247952D02*
X150344Y247952D01*
X150285Y248503D02*
X150344Y248503D01*
X150285Y249055D02*
X150344Y249055D01*
X150285Y249606D02*
X150344Y249606D01*
X150285Y250157D02*
X150344Y250157D01*
X150285Y250708D02*
X150344Y250708D01*
X154645Y244153D02*
X150314Y244153D01*
X150294Y244144D01*
X150285Y244124D01*
X150294Y244103D01*
X150314Y244094D01*
X154645Y244094D01*
X154666Y244103D01*
X154675Y244124D01*
X154666Y244144D01*
X154645Y244153D01*
X152480Y247696D02*
X150314Y247696D01*
X150294Y247688D01*
X150285Y247667D01*
X150294Y247646D01*
X150314Y247637D01*
X152480Y247637D01*
X152501Y247646D01*
X152509Y247667D01*
X152501Y247688D01*
X152480Y247696D01*
X154645Y251240D02*
X150314Y251240D01*
X150294Y251231D01*
X150285Y251210D01*
X150294Y251189D01*
X150314Y251181D01*
X154645Y251181D01*
X154666Y251189D01*
X154675Y251210D01*
X154666Y251231D01*
X154645Y251240D01*
X160275Y251240D02*
X155944Y251240D01*
X155924Y251231D01*
X155915Y251210D01*
X155924Y251189D01*
X155944Y251181D01*
X160275Y251181D01*
X160296Y251189D01*
X160305Y251210D01*
X160296Y251231D01*
X160275Y251240D01*
X158139Y244124D02*
X158139Y251210D01*
X158131Y251231D01*
X158110Y251240D01*
X158089Y251231D01*
X158080Y251210D01*
X158080Y244124D01*
X158089Y244103D01*
X158110Y244094D01*
X158131Y244103D01*
X158139Y244124D01*
X158080Y244645D02*
X158139Y244645D01*
X158080Y245196D02*
X158139Y245196D01*
X158080Y245748D02*
X158139Y245748D01*
X158080Y246299D02*
X158139Y246299D01*
X158080Y246850D02*
X158139Y246850D01*
X158080Y247401D02*
X158139Y247401D01*
X158080Y247952D02*
X158139Y247952D01*
X158080Y248503D02*
X158139Y248503D01*
X158080Y249055D02*
X158139Y249055D01*
X158080Y249606D02*
X158139Y249606D01*
X158080Y250157D02*
X158139Y250157D01*
X158080Y250708D02*
X158139Y250708D01*
X167175Y251210D02*
X167175Y244124D01*
X167183Y244103D01*
X167204Y244094D01*
X167225Y244103D01*
X167234Y244124D01*
X167234Y251210D01*
X167225Y251231D01*
X167204Y251240D01*
X167183Y251231D01*
X167175Y251210D01*
X167175Y244645D02*
X167234Y244645D01*
X167175Y245196D02*
X167234Y245196D01*
X167175Y245748D02*
X167234Y245748D01*
X167175Y246299D02*
X167234Y246299D01*
X167175Y246850D02*
X167234Y246850D01*
X167175Y247401D02*
X167234Y247401D01*
X167175Y247952D02*
X167234Y247952D01*
X167175Y248503D02*
X167234Y248503D01*
X167175Y249055D02*
X167234Y249055D01*
X167175Y249606D02*
X167234Y249606D01*
X167175Y250157D02*
X167234Y250157D01*
X167175Y250708D02*
X167234Y250708D01*
X171560Y244139D02*
X167229Y251226D01*
X167211Y251239D01*
X167189Y251235D01*
X167176Y251217D01*
X167179Y251195D01*
X171510Y244108D01*
X171528Y244095D01*
X171550Y244098D01*
X171564Y244117D01*
X171560Y244139D01*
X171181Y244646D02*
X171250Y244646D01*
X170844Y245197D02*
X170913Y245197D01*
X170507Y245748D02*
X170577Y245748D01*
X170171Y246300D02*
X170240Y246300D01*
X169834Y246851D02*
X169903Y246851D01*
X169497Y247402D02*
X169566Y247402D01*
X169160Y247953D02*
X169229Y247953D01*
X168823Y248504D02*
X168892Y248504D01*
X168486Y249055D02*
X168556Y249055D01*
X168150Y249607D02*
X168219Y249607D01*
X167813Y250158D02*
X167882Y250158D01*
X167476Y250709D02*
X167545Y250709D01*
X171505Y251210D02*
X171505Y244124D01*
X171514Y244103D01*
X171535Y244094D01*
X171556Y244103D01*
X171564Y244124D01*
X171564Y251210D01*
X171556Y251231D01*
X171535Y251240D01*
X171514Y251231D01*
X171505Y251210D01*
X171505Y244645D02*
X171564Y244645D01*
X171505Y245196D02*
X171564Y245196D01*
X171505Y245748D02*
X171564Y245748D01*
X171505Y246299D02*
X171564Y246299D01*
X171505Y246850D02*
X171564Y246850D01*
X171505Y247401D02*
X171564Y247401D01*
X171505Y247952D02*
X171564Y247952D01*
X171505Y248503D02*
X171564Y248503D01*
X171505Y249055D02*
X171564Y249055D01*
X171505Y249606D02*
X171564Y249606D01*
X171505Y250157D02*
X171564Y250157D01*
X171505Y250708D02*
X171564Y250708D01*
X176609Y244740D02*
X175527Y244149D01*
X175513Y244132D01*
X175515Y244109D01*
X175533Y244095D01*
X175555Y244098D01*
X176638Y244688D01*
X176652Y244706D01*
X176649Y244728D01*
X176632Y244742D01*
X176609Y244740D01*
X176438Y244646D02*
X176561Y244646D01*
X177138Y245907D02*
X176597Y244726D01*
X176596Y244704D01*
X176611Y244687D01*
X176634Y244686D01*
X176650Y244702D01*
X177192Y245883D01*
X177193Y245905D01*
X177177Y245922D01*
X177155Y245923D01*
X177138Y245907D01*
X176831Y245238D02*
X176896Y245238D01*
X177084Y245789D02*
X177149Y245789D01*
X174458Y244094D02*
X175541Y244094D01*
X175562Y244103D01*
X175570Y244124D01*
X175562Y244144D01*
X175541Y244153D01*
X174458Y244153D01*
X174437Y244144D01*
X174429Y244124D01*
X174437Y244103D01*
X174458Y244094D01*
X173361Y244688D02*
X174444Y244098D01*
X174466Y244095D01*
X174484Y244109D01*
X174486Y244132D01*
X174472Y244149D01*
X173390Y244740D01*
X173367Y244742D01*
X173350Y244728D01*
X173347Y244706D01*
X173361Y244688D01*
X173438Y244646D02*
X173561Y244646D01*
X172807Y245883D02*
X173349Y244702D01*
X173365Y244686D01*
X173388Y244687D01*
X173403Y244704D01*
X173402Y244726D01*
X172861Y245907D01*
X172844Y245923D01*
X172822Y245922D01*
X172806Y245905D01*
X172807Y245883D01*
X173103Y245238D02*
X173168Y245238D01*
X172850Y245789D02*
X172915Y245789D01*
X172805Y249438D02*
X172805Y245895D01*
X172813Y245874D01*
X172834Y245866D01*
X172855Y245874D01*
X172864Y245895D01*
X172864Y249438D01*
X172855Y249459D01*
X172834Y249468D01*
X172813Y249459D01*
X172805Y249438D01*
X172805Y246417D02*
X172864Y246417D01*
X172805Y246968D02*
X172864Y246968D01*
X172805Y247519D02*
X172864Y247519D01*
X172805Y248070D02*
X172864Y248070D01*
X172805Y248622D02*
X172864Y248622D01*
X172805Y249173D02*
X172864Y249173D01*
X173349Y250632D02*
X172807Y249451D01*
X172806Y249428D01*
X172822Y249412D01*
X172844Y249411D01*
X172861Y249426D01*
X173402Y250607D01*
X173403Y250630D01*
X173388Y250646D01*
X173365Y250647D01*
X173349Y250632D01*
X173042Y249962D02*
X173107Y249962D01*
X173294Y250513D02*
X173359Y250513D01*
X174444Y251236D02*
X173361Y250646D01*
X173347Y250628D01*
X173350Y250605D01*
X173367Y250591D01*
X173390Y250594D01*
X174472Y251184D01*
X174486Y251202D01*
X174484Y251224D01*
X174466Y251238D01*
X174444Y251236D01*
X174272Y251142D02*
X174396Y251142D01*
X175541Y251240D02*
X174458Y251240D01*
X174437Y251231D01*
X174429Y251210D01*
X174437Y251189D01*
X174458Y251181D01*
X175541Y251181D01*
X175562Y251189D01*
X175570Y251210D01*
X175562Y251231D01*
X175541Y251240D01*
X176638Y250646D02*
X175555Y251236D01*
X175533Y251238D01*
X175515Y251224D01*
X175513Y251202D01*
X175527Y251184D01*
X176609Y250594D01*
X176632Y250591D01*
X176649Y250605D01*
X176652Y250628D01*
X176638Y250646D01*
X175603Y251142D02*
X175727Y251142D01*
X177192Y249451D02*
X176650Y250632D01*
X176634Y250647D01*
X176611Y250646D01*
X176596Y250630D01*
X176597Y250607D01*
X177138Y249426D01*
X177155Y249411D01*
X177177Y249412D01*
X177193Y249428D01*
X177192Y249451D01*
X176892Y249962D02*
X176957Y249962D01*
X176640Y250513D02*
X176705Y250513D01*
X182795Y247696D02*
X178464Y247696D01*
X178443Y247688D01*
X178435Y247667D01*
X178443Y247646D01*
X178464Y247637D01*
X182795Y247637D01*
X182816Y247646D01*
X182824Y247667D01*
X182816Y247688D01*
X182795Y247696D01*
X184124Y244124D02*
X184124Y251210D01*
X184115Y251231D01*
X184094Y251240D01*
X184073Y251231D01*
X184064Y251210D01*
X184064Y244124D01*
X184073Y244103D01*
X184094Y244094D01*
X184115Y244103D01*
X184124Y244124D01*
X184064Y244645D02*
X184124Y244645D01*
X184064Y245196D02*
X184124Y245196D01*
X184064Y245748D02*
X184124Y245748D01*
X184064Y246299D02*
X184124Y246299D01*
X184064Y246850D02*
X184124Y246850D01*
X184064Y247401D02*
X184124Y247401D01*
X184064Y247952D02*
X184124Y247952D01*
X184064Y248503D02*
X184124Y248503D01*
X184064Y249055D02*
X184124Y249055D01*
X184064Y249606D02*
X184124Y249606D01*
X184064Y250157D02*
X184124Y250157D01*
X184064Y250708D02*
X184124Y250708D01*
X188425Y244153D02*
X184094Y244153D01*
X184073Y244144D01*
X184064Y244124D01*
X184073Y244103D01*
X184094Y244094D01*
X188425Y244094D01*
X188446Y244103D01*
X188454Y244124D01*
X188446Y244144D01*
X188425Y244153D01*
X186259Y247696D02*
X184094Y247696D01*
X184073Y247688D01*
X184064Y247667D01*
X184073Y247646D01*
X184094Y247637D01*
X186259Y247637D01*
X186280Y247646D01*
X186289Y247667D01*
X186280Y247688D01*
X186259Y247696D01*
X188425Y251240D02*
X184094Y251240D01*
X184073Y251231D01*
X184064Y251210D01*
X184073Y251189D01*
X184094Y251181D01*
X188425Y251181D01*
X188446Y251189D01*
X188454Y251210D01*
X188446Y251231D01*
X188425Y251240D01*
X194084Y244124D02*
X194084Y251210D01*
X194075Y251231D01*
X194055Y251240D01*
X194034Y251231D01*
X194025Y251210D01*
X194025Y244124D01*
X194034Y244103D01*
X194055Y244094D01*
X194075Y244103D01*
X194084Y244124D01*
X194025Y244645D02*
X194084Y244645D01*
X194025Y245196D02*
X194084Y245196D01*
X194025Y245748D02*
X194084Y245748D01*
X194025Y246299D02*
X194084Y246299D01*
X194025Y246850D02*
X194084Y246850D01*
X194025Y247401D02*
X194084Y247401D01*
X194025Y247952D02*
X194084Y247952D01*
X194025Y248503D02*
X194084Y248503D01*
X194025Y249055D02*
X194084Y249055D01*
X194025Y249606D02*
X194084Y249606D01*
X194025Y250157D02*
X194084Y250157D01*
X194025Y250708D02*
X194084Y250708D01*
X190807Y244094D02*
X194055Y244094D01*
X194075Y244103D01*
X194084Y244124D01*
X194075Y244144D01*
X194055Y244153D01*
X190807Y244153D01*
X190786Y244144D01*
X190777Y244124D01*
X190786Y244103D01*
X190807Y244094D01*
X189702Y245285D02*
X190785Y244104D01*
X190805Y244094D01*
X190827Y244102D01*
X190836Y244122D01*
X190828Y244143D01*
X189746Y245325D01*
X189725Y245334D01*
X189704Y245326D01*
X189694Y245306D01*
X189702Y245285D01*
X190288Y244645D02*
X190368Y244645D01*
X189783Y245196D02*
X189863Y245196D01*
X189694Y247076D02*
X189694Y245305D01*
X189703Y245284D01*
X189724Y245275D01*
X189745Y245284D01*
X189753Y245305D01*
X189753Y247076D01*
X189745Y247097D01*
X189724Y247106D01*
X189703Y247097D01*
X189694Y247076D01*
X189694Y245826D02*
X189753Y245826D01*
X189694Y246377D02*
X189753Y246377D01*
X189694Y246929D02*
X189753Y246929D01*
X190785Y248277D02*
X189702Y247096D01*
X189694Y247075D01*
X189704Y247055D01*
X189725Y247047D01*
X189746Y247056D01*
X190828Y248237D01*
X190836Y248259D01*
X190827Y248279D01*
X190805Y248287D01*
X190785Y248277D01*
X190162Y247598D02*
X190242Y247598D01*
X190667Y248149D02*
X190747Y248149D01*
X194055Y248287D02*
X190807Y248287D01*
X190786Y248278D01*
X190777Y248257D01*
X190786Y248236D01*
X190807Y248228D01*
X194055Y248228D01*
X194075Y248236D01*
X194084Y248257D01*
X194075Y248278D01*
X194055Y248287D01*
X199685Y244153D02*
X195354Y244153D01*
X195333Y244144D01*
X195324Y244124D01*
X195333Y244103D01*
X195354Y244094D01*
X199685Y244094D01*
X199705Y244103D01*
X199714Y244124D01*
X199705Y244144D01*
X199685Y244153D01*
X197490Y248257D02*
X197490Y244124D01*
X197498Y244103D01*
X197519Y244094D01*
X197540Y244103D01*
X197549Y244124D01*
X197549Y248257D01*
X197540Y248278D01*
X197519Y248287D01*
X197498Y248278D01*
X197490Y248257D01*
X197490Y244645D02*
X197549Y244645D01*
X197490Y245196D02*
X197549Y245196D01*
X197490Y245748D02*
X197549Y245748D01*
X197490Y246299D02*
X197549Y246299D01*
X197490Y246850D02*
X197549Y246850D01*
X197490Y247401D02*
X197549Y247401D01*
X197490Y247952D02*
X197549Y247952D01*
X197549Y250620D02*
X197549Y251210D01*
X197540Y251231D01*
X197519Y251240D01*
X197498Y251231D01*
X197490Y251210D01*
X197490Y250620D01*
X197498Y250599D01*
X197519Y250590D01*
X197540Y250599D01*
X197549Y250620D01*
X197490Y251141D02*
X197549Y251141D01*
X197519Y248287D02*
X195895Y248287D01*
X195874Y248278D01*
X195866Y248257D01*
X195874Y248236D01*
X195895Y248228D01*
X197519Y248228D01*
X197540Y248236D01*
X197549Y248257D01*
X197540Y248278D01*
X197519Y248287D01*
X201013Y245305D02*
X201013Y251210D01*
X201005Y251231D01*
X200984Y251240D01*
X200963Y251231D01*
X200954Y251210D01*
X200954Y245305D01*
X200963Y245284D01*
X200984Y245275D01*
X201005Y245284D01*
X201013Y245305D01*
X200954Y245826D02*
X201013Y245826D01*
X200954Y246377D02*
X201013Y246377D01*
X200954Y246929D02*
X201013Y246929D01*
X200954Y247480D02*
X201013Y247480D01*
X200954Y248031D02*
X201013Y248031D01*
X200954Y248582D02*
X201013Y248582D01*
X200954Y249133D02*
X201013Y249133D01*
X200954Y249685D02*
X201013Y249685D01*
X200954Y250236D02*
X201013Y250236D01*
X200954Y250787D02*
X201013Y250787D01*
X202088Y244143D02*
X201006Y245325D01*
X200985Y245334D01*
X200964Y245326D01*
X200954Y245306D01*
X200962Y245285D01*
X202045Y244104D01*
X202065Y244094D01*
X202086Y244102D01*
X202096Y244122D01*
X202088Y244143D01*
X201548Y244645D02*
X201628Y244645D01*
X201043Y245196D02*
X201123Y245196D01*
X205314Y244153D02*
X202066Y244153D01*
X202046Y244144D01*
X202037Y244124D01*
X202046Y244103D01*
X202066Y244094D01*
X205314Y244094D01*
X205335Y244103D01*
X205344Y244124D01*
X205335Y244144D01*
X205314Y244153D01*
X203149Y248287D02*
X200984Y248287D01*
X200963Y248278D01*
X200954Y248257D01*
X200963Y248236D01*
X200984Y248228D01*
X203149Y248228D01*
X203170Y248236D01*
X203179Y248257D01*
X203170Y248278D01*
X203149Y248287D01*
X210944Y244153D02*
X206614Y244153D01*
X206593Y244144D01*
X206584Y244124D01*
X206593Y244103D01*
X206614Y244094D01*
X210944Y244094D01*
X210965Y244103D01*
X210974Y244124D01*
X210965Y244144D01*
X210944Y244153D01*
X208750Y248257D02*
X208750Y244124D01*
X208758Y244103D01*
X208779Y244094D01*
X208800Y244103D01*
X208809Y244124D01*
X208809Y248257D01*
X208800Y248278D01*
X208779Y248287D01*
X208758Y248278D01*
X208750Y248257D01*
X208750Y244645D02*
X208809Y244645D01*
X208750Y245196D02*
X208809Y245196D01*
X208750Y245748D02*
X208809Y245748D01*
X208750Y246299D02*
X208809Y246299D01*
X208750Y246850D02*
X208809Y246850D01*
X208750Y247401D02*
X208809Y247401D01*
X208750Y247952D02*
X208809Y247952D01*
X208809Y250620D02*
X208809Y251210D01*
X208800Y251231D01*
X208779Y251240D01*
X208758Y251231D01*
X208750Y251210D01*
X208750Y250620D01*
X208758Y250599D01*
X208779Y250590D01*
X208800Y250599D01*
X208809Y250620D01*
X208750Y251141D02*
X208809Y251141D01*
X208779Y248287D02*
X207155Y248287D01*
X207134Y248278D01*
X207125Y248257D01*
X207134Y248236D01*
X207155Y248228D01*
X208779Y248228D01*
X208800Y248236D01*
X208809Y248257D01*
X208800Y248278D01*
X208779Y248287D01*
X212273Y245305D02*
X212273Y247076D01*
X212264Y247097D01*
X212244Y247106D01*
X212223Y247097D01*
X212214Y247076D01*
X212214Y245305D01*
X212223Y245284D01*
X212244Y245275D01*
X212264Y245284D01*
X212273Y245305D01*
X212214Y245826D02*
X212273Y245826D01*
X212214Y246377D02*
X212273Y246377D01*
X212214Y246929D02*
X212273Y246929D01*
X213305Y248277D02*
X212222Y247096D01*
X212214Y247075D01*
X212224Y247055D01*
X212245Y247047D01*
X212265Y247056D01*
X213348Y248237D01*
X213356Y248259D01*
X213346Y248279D01*
X213325Y248287D01*
X213305Y248277D01*
X212682Y247598D02*
X212762Y247598D01*
X213187Y248149D02*
X213267Y248149D01*
X215492Y248287D02*
X213326Y248287D01*
X213305Y248278D01*
X213297Y248257D01*
X213305Y248236D01*
X213326Y248228D01*
X215492Y248228D01*
X215513Y248236D01*
X215521Y248257D01*
X215513Y248278D01*
X215492Y248287D01*
X216596Y247096D02*
X215513Y248277D01*
X215493Y248287D01*
X215472Y248279D01*
X215462Y248259D01*
X215470Y248237D01*
X216553Y247056D01*
X216573Y247047D01*
X216594Y247055D01*
X216604Y247075D01*
X216596Y247096D01*
X216056Y247598D02*
X216136Y247598D01*
X215551Y248149D02*
X215631Y248149D01*
X216604Y245305D02*
X216604Y247076D01*
X216595Y247097D01*
X216574Y247106D01*
X216553Y247097D01*
X216545Y247076D01*
X216545Y245305D01*
X216553Y245284D01*
X216574Y245275D01*
X216595Y245284D01*
X216604Y245305D01*
X216545Y245826D02*
X216604Y245826D01*
X216545Y246377D02*
X216604Y246377D01*
X216545Y246929D02*
X216604Y246929D01*
X215513Y244104D02*
X216596Y245285D01*
X216604Y245306D01*
X216594Y245326D01*
X216573Y245334D01*
X216553Y245325D01*
X215470Y244143D01*
X215462Y244122D01*
X215472Y244102D01*
X215493Y244094D01*
X215513Y244104D01*
X215930Y244645D02*
X216010Y244645D01*
X216435Y245196D02*
X216515Y245196D01*
X213326Y244094D02*
X215492Y244094D01*
X215513Y244103D01*
X215521Y244124D01*
X215513Y244144D01*
X215492Y244153D01*
X213326Y244153D01*
X213305Y244144D01*
X213297Y244124D01*
X213305Y244103D01*
X213326Y244094D01*
X212222Y245285D02*
X213305Y244104D01*
X213325Y244094D01*
X213346Y244102D01*
X213356Y244122D01*
X213348Y244143D01*
X212265Y245325D01*
X212245Y245334D01*
X212224Y245326D01*
X212214Y245306D01*
X212222Y245285D01*
X212808Y244645D02*
X212888Y244645D01*
X212303Y245196D02*
X212383Y245196D01*
X217844Y248257D02*
X217844Y244124D01*
X217853Y244103D01*
X217874Y244094D01*
X217894Y244103D01*
X217903Y244124D01*
X217903Y248257D01*
X217894Y248278D01*
X217874Y248287D01*
X217853Y248278D01*
X217844Y248257D01*
X217844Y244645D02*
X217903Y244645D01*
X217844Y245196D02*
X217903Y245196D01*
X217844Y245748D02*
X217903Y245748D01*
X217844Y246299D02*
X217903Y246299D01*
X217844Y246850D02*
X217903Y246850D01*
X217844Y247401D02*
X217903Y247401D01*
X217844Y247952D02*
X217903Y247952D01*
X218934Y248277D02*
X217852Y247096D01*
X217844Y247075D01*
X217854Y247055D01*
X217875Y247047D01*
X217895Y247056D01*
X218978Y248237D01*
X218986Y248259D01*
X218976Y248279D01*
X218955Y248287D01*
X218934Y248277D01*
X218312Y247598D02*
X218392Y247598D01*
X218817Y248149D02*
X218897Y248149D01*
X221122Y248287D02*
X218956Y248287D01*
X218935Y248278D01*
X218927Y248257D01*
X218935Y248236D01*
X218956Y248228D01*
X221122Y248228D01*
X221142Y248236D01*
X221151Y248257D01*
X221142Y248278D01*
X221122Y248287D01*
X222226Y247096D02*
X221143Y248277D01*
X221123Y248287D01*
X221102Y248279D01*
X221092Y248259D01*
X221100Y248237D01*
X222182Y247056D01*
X222203Y247047D01*
X222224Y247055D01*
X222234Y247075D01*
X222226Y247096D01*
X221686Y247598D02*
X221766Y247598D01*
X221181Y248149D02*
X221261Y248149D01*
X222234Y244124D02*
X222234Y247076D01*
X222225Y247097D01*
X222204Y247106D01*
X222183Y247097D01*
X222175Y247076D01*
X222175Y244124D01*
X222183Y244103D01*
X222204Y244094D01*
X222225Y244103D01*
X222234Y244124D01*
X222175Y244645D02*
X222234Y244645D01*
X222175Y245196D02*
X222234Y245196D01*
X222175Y245748D02*
X222234Y245748D01*
X222175Y246299D02*
X222234Y246299D01*
X222175Y246850D02*
X222234Y246850D01*
X224616Y244124D02*
X224616Y244714D01*
X224607Y244735D01*
X224586Y244744D01*
X224565Y244735D01*
X224557Y244714D01*
X224557Y244124D01*
X224565Y244103D01*
X224586Y244094D01*
X224607Y244103D01*
X224616Y244124D01*
X224557Y244645D02*
X224616Y244645D01*
X225127Y244153D02*
X224586Y244153D01*
X224565Y244144D01*
X224557Y244124D01*
X224565Y244103D01*
X224586Y244094D01*
X225127Y244094D01*
X225148Y244103D01*
X225157Y244124D01*
X225148Y244144D01*
X225127Y244153D01*
X225098Y244714D02*
X225098Y244124D01*
X225107Y244103D01*
X225127Y244094D01*
X225148Y244103D01*
X225157Y244124D01*
X225157Y244714D01*
X225148Y244735D01*
X225127Y244744D01*
X225107Y244735D01*
X225098Y244714D01*
X225098Y244645D02*
X225157Y244645D01*
X224586Y244685D02*
X225127Y244685D01*
X225148Y244693D01*
X225157Y244714D01*
X225148Y244735D01*
X225127Y244744D01*
X224586Y244744D01*
X224565Y244735D01*
X224557Y244714D01*
X224565Y244693D01*
X224586Y244685D01*
X224586Y247637D02*
X225127Y247637D01*
X225148Y247646D01*
X225157Y247667D01*
X225148Y247688D01*
X225127Y247696D01*
X224586Y247696D01*
X224565Y247688D01*
X224557Y247667D01*
X224565Y247646D01*
X224586Y247637D01*
X224616Y247076D02*
X224616Y247667D01*
X224607Y247688D01*
X224586Y247696D01*
X224565Y247688D01*
X224557Y247667D01*
X224557Y247076D01*
X224565Y247055D01*
X224586Y247047D01*
X224607Y247055D01*
X224616Y247076D01*
X224557Y247598D02*
X224616Y247598D01*
X225127Y247106D02*
X224586Y247106D01*
X224565Y247097D01*
X224557Y247076D01*
X224565Y247055D01*
X224586Y247047D01*
X225127Y247047D01*
X225148Y247055D01*
X225157Y247076D01*
X225148Y247097D01*
X225127Y247106D01*
X225098Y247667D02*
X225098Y247076D01*
X225107Y247055D01*
X225127Y247047D01*
X225148Y247055D01*
X225157Y247076D01*
X225157Y247667D01*
X225148Y247688D01*
X225127Y247696D01*
X225107Y247688D01*
X225098Y247667D01*
X225098Y247598D02*
X225157Y247598D01*
X234793Y244124D02*
X234793Y251210D01*
X234784Y251231D01*
X234763Y251240D01*
X234742Y251231D01*
X234734Y251210D01*
X234734Y244124D01*
X234742Y244103D01*
X234763Y244094D01*
X234784Y244103D01*
X234793Y244124D01*
X234734Y244645D02*
X234793Y244645D01*
X234734Y245196D02*
X234793Y245196D01*
X234734Y245748D02*
X234793Y245748D01*
X234734Y246299D02*
X234793Y246299D01*
X234734Y246850D02*
X234793Y246850D01*
X234734Y247401D02*
X234793Y247401D01*
X234734Y247952D02*
X234793Y247952D01*
X234734Y248503D02*
X234793Y248503D01*
X234734Y249055D02*
X234793Y249055D01*
X234734Y249606D02*
X234793Y249606D01*
X234734Y250157D02*
X234793Y250157D01*
X234734Y250708D02*
X234793Y250708D01*
X239072Y251230D02*
X234742Y246506D01*
X234734Y246484D01*
X234743Y246464D01*
X234765Y246456D01*
X234785Y246466D01*
X239116Y251190D01*
X239123Y251211D01*
X239114Y251232D01*
X239093Y251240D01*
X239072Y251230D01*
X235201Y247007D02*
X235282Y247007D01*
X235707Y247559D02*
X235787Y247559D01*
X236212Y248110D02*
X236292Y248110D01*
X236717Y248661D02*
X236797Y248661D01*
X237222Y249212D02*
X237303Y249212D01*
X237728Y249763D02*
X237808Y249763D01*
X238233Y250314D02*
X238313Y250314D01*
X238738Y250866D02*
X238818Y250866D01*
X239119Y244140D02*
X236412Y248274D01*
X236393Y248286D01*
X236371Y248282D01*
X236358Y248263D01*
X236363Y248241D01*
X239069Y244107D01*
X239088Y244095D01*
X239110Y244099D01*
X239123Y244117D01*
X239119Y244140D01*
X238717Y244646D02*
X238787Y244646D01*
X238356Y245197D02*
X238426Y245197D01*
X237995Y245748D02*
X238066Y245748D01*
X237634Y246299D02*
X237705Y246299D01*
X237273Y246851D02*
X237344Y246851D01*
X236912Y247402D02*
X236983Y247402D01*
X236551Y247953D02*
X236622Y247953D01*
X240423Y245305D02*
X240423Y247076D01*
X240414Y247097D01*
X240393Y247106D01*
X240372Y247097D01*
X240364Y247076D01*
X240364Y245305D01*
X240372Y245284D01*
X240393Y245275D01*
X240414Y245284D01*
X240423Y245305D01*
X240364Y245826D02*
X240423Y245826D01*
X240364Y246377D02*
X240423Y246377D01*
X240364Y246929D02*
X240423Y246929D01*
X241454Y248277D02*
X240371Y247096D01*
X240364Y247075D01*
X240373Y247055D01*
X240394Y247047D01*
X240415Y247056D01*
X241498Y248237D01*
X241505Y248259D01*
X241496Y248279D01*
X241475Y248287D01*
X241454Y248277D01*
X240831Y247598D02*
X240911Y247598D01*
X241337Y248149D02*
X241417Y248149D01*
X243641Y248287D02*
X241476Y248287D01*
X241455Y248278D01*
X241446Y248257D01*
X241455Y248236D01*
X241476Y248228D01*
X243641Y248228D01*
X243662Y248236D01*
X243671Y248257D01*
X243662Y248278D01*
X243641Y248287D01*
X244746Y247096D02*
X243663Y248277D01*
X243643Y248287D01*
X243621Y248279D01*
X243612Y248259D01*
X243619Y248237D01*
X244702Y247056D01*
X244723Y247047D01*
X244744Y247055D01*
X244753Y247075D01*
X244746Y247096D01*
X244206Y247598D02*
X244286Y247598D01*
X243700Y248149D02*
X243781Y248149D01*
X244753Y245305D02*
X244753Y247076D01*
X244745Y247097D01*
X244724Y247106D01*
X244703Y247097D01*
X244694Y247076D01*
X244694Y245305D01*
X244703Y245284D01*
X244724Y245275D01*
X244745Y245284D01*
X244753Y245305D01*
X244694Y245826D02*
X244753Y245826D01*
X244694Y246377D02*
X244753Y246377D01*
X244694Y246929D02*
X244753Y246929D01*
X243663Y244104D02*
X244746Y245285D01*
X244753Y245306D01*
X244744Y245326D01*
X244723Y245334D01*
X244702Y245325D01*
X243619Y244143D01*
X243612Y244122D01*
X243621Y244102D01*
X243643Y244094D01*
X243663Y244104D01*
X244079Y244645D02*
X244159Y244645D01*
X244585Y245196D02*
X244665Y245196D01*
X241476Y244094D02*
X243641Y244094D01*
X243662Y244103D01*
X243671Y244124D01*
X243662Y244144D01*
X243641Y244153D01*
X241476Y244153D01*
X241455Y244144D01*
X241446Y244124D01*
X241455Y244103D01*
X241476Y244094D01*
X240371Y245285D02*
X241454Y244104D01*
X241475Y244094D01*
X241496Y244102D01*
X241505Y244122D01*
X241498Y244143D01*
X240415Y245325D01*
X240394Y245334D01*
X240373Y245326D01*
X240364Y245306D01*
X240371Y245285D01*
X240958Y244645D02*
X241038Y244645D01*
X240452Y245196D02*
X240532Y245196D01*
X250324Y247076D02*
X250324Y244124D01*
X250333Y244103D01*
X250354Y244094D01*
X250375Y244103D01*
X250383Y244124D01*
X250383Y247076D01*
X250375Y247097D01*
X250354Y247106D01*
X250333Y247097D01*
X250324Y247076D01*
X250324Y244645D02*
X250383Y244645D01*
X250324Y245196D02*
X250383Y245196D01*
X250324Y245748D02*
X250383Y245748D01*
X250324Y246299D02*
X250383Y246299D01*
X250324Y246850D02*
X250383Y246850D01*
X249249Y248237D02*
X250332Y247056D01*
X250353Y247047D01*
X250374Y247055D01*
X250383Y247075D01*
X250376Y247096D01*
X249293Y248277D01*
X249272Y248287D01*
X249251Y248279D01*
X249242Y248259D01*
X249249Y248237D01*
X249836Y247598D02*
X249916Y247598D01*
X249330Y248149D02*
X249410Y248149D01*
X248159Y247076D02*
X248159Y244124D01*
X248168Y244103D01*
X248188Y244094D01*
X248209Y244103D01*
X248218Y244124D01*
X248218Y247076D01*
X248209Y247097D01*
X248188Y247106D01*
X248168Y247097D01*
X248159Y247076D01*
X248159Y244645D02*
X248218Y244645D01*
X248159Y245196D02*
X248218Y245196D01*
X248159Y245748D02*
X248218Y245748D01*
X248159Y246299D02*
X248218Y246299D01*
X248159Y246850D02*
X248218Y246850D01*
X249271Y248287D02*
X246023Y248287D01*
X246002Y248278D01*
X245994Y248257D01*
X246002Y248236D01*
X246023Y248228D01*
X249271Y248228D01*
X249292Y248236D01*
X249301Y248257D01*
X249292Y248278D01*
X249271Y248287D01*
X245994Y248257D02*
X245994Y244124D01*
X246002Y244103D01*
X246023Y244094D01*
X246044Y244103D01*
X246053Y244124D01*
X246053Y248257D01*
X246044Y248278D01*
X246023Y248287D01*
X246002Y248278D01*
X245994Y248257D01*
X245994Y244645D02*
X246053Y244645D01*
X245994Y245196D02*
X246053Y245196D01*
X245994Y245748D02*
X246053Y245748D01*
X245994Y246299D02*
X246053Y246299D01*
X245994Y246850D02*
X246053Y246850D01*
X245994Y247401D02*
X246053Y247401D01*
X245994Y247952D02*
X246053Y247952D01*
X247084Y248237D02*
X248167Y247056D01*
X248187Y247047D01*
X248208Y247055D01*
X248218Y247075D01*
X248210Y247096D01*
X247128Y248277D01*
X247107Y248287D01*
X247086Y248279D01*
X247076Y248259D01*
X247084Y248237D01*
X247670Y247598D02*
X247750Y247598D01*
X247165Y248149D02*
X247245Y248149D01*
X255954Y247076D02*
X255954Y244124D01*
X255963Y244103D01*
X255984Y244094D01*
X256005Y244103D01*
X256013Y244124D01*
X256013Y247076D01*
X256005Y247097D01*
X255984Y247106D01*
X255963Y247097D01*
X255954Y247076D01*
X255954Y244645D02*
X256013Y244645D01*
X255954Y245196D02*
X256013Y245196D01*
X255954Y245748D02*
X256013Y245748D01*
X255954Y246299D02*
X256013Y246299D01*
X255954Y246850D02*
X256013Y246850D01*
X254879Y248237D02*
X255962Y247056D01*
X255982Y247047D01*
X256004Y247055D01*
X256013Y247075D01*
X256006Y247096D01*
X254923Y248277D01*
X254902Y248287D01*
X254881Y248279D01*
X254872Y248259D01*
X254879Y248237D01*
X255465Y247598D02*
X255546Y247598D01*
X254960Y248149D02*
X255040Y248149D01*
X253789Y247076D02*
X253789Y244124D01*
X253798Y244103D01*
X253818Y244094D01*
X253839Y244103D01*
X253848Y244124D01*
X253848Y247076D01*
X253839Y247097D01*
X253818Y247106D01*
X253798Y247097D01*
X253789Y247076D01*
X253789Y244645D02*
X253848Y244645D01*
X253789Y245196D02*
X253848Y245196D01*
X253789Y245748D02*
X253848Y245748D01*
X253789Y246299D02*
X253848Y246299D01*
X253789Y246850D02*
X253848Y246850D01*
X254901Y248287D02*
X251653Y248287D01*
X251632Y248278D01*
X251624Y248257D01*
X251632Y248236D01*
X251653Y248228D01*
X254901Y248228D01*
X254922Y248236D01*
X254931Y248257D01*
X254922Y248278D01*
X254901Y248287D01*
X251624Y248257D02*
X251624Y244124D01*
X251632Y244103D01*
X251653Y244094D01*
X251674Y244103D01*
X251683Y244124D01*
X251683Y248257D01*
X251674Y248278D01*
X251653Y248287D01*
X251632Y248278D01*
X251624Y248257D01*
X251624Y244645D02*
X251683Y244645D01*
X251624Y245196D02*
X251683Y245196D01*
X251624Y245748D02*
X251683Y245748D01*
X251624Y246299D02*
X251683Y246299D01*
X251624Y246850D02*
X251683Y246850D01*
X251624Y247401D02*
X251683Y247401D01*
X251624Y247952D02*
X251683Y247952D01*
X252714Y248237D02*
X253797Y247056D01*
X253817Y247047D01*
X253838Y247055D01*
X253848Y247075D01*
X253840Y247096D01*
X252757Y248277D01*
X252737Y248287D01*
X252716Y248279D01*
X252706Y248259D01*
X252714Y248237D01*
X253300Y247598D02*
X253380Y247598D01*
X252795Y248149D02*
X252875Y248149D01*
X260545Y244098D02*
X261628Y244688D01*
X261642Y244706D01*
X261640Y244728D01*
X261622Y244742D01*
X261600Y244740D01*
X260517Y244149D01*
X260503Y244132D01*
X260505Y244109D01*
X260523Y244095D01*
X260545Y244098D01*
X261428Y244646D02*
X261551Y244646D01*
X258366Y244094D02*
X260531Y244094D01*
X260552Y244103D01*
X260561Y244124D01*
X260552Y244144D01*
X260531Y244153D01*
X258366Y244153D01*
X258345Y244144D01*
X258336Y244124D01*
X258345Y244103D01*
X258366Y244094D01*
X257261Y245285D02*
X258344Y244104D01*
X258364Y244094D01*
X258386Y244102D01*
X258395Y244122D01*
X258387Y244143D01*
X257305Y245325D01*
X257284Y245334D01*
X257263Y245326D01*
X257253Y245306D01*
X257261Y245285D01*
X257847Y244645D02*
X257927Y244645D01*
X257342Y245196D02*
X257422Y245196D01*
X257253Y247076D02*
X257253Y245305D01*
X257262Y245284D01*
X257283Y245275D01*
X257304Y245284D01*
X257312Y245305D01*
X257312Y247076D01*
X257304Y247097D01*
X257283Y247106D01*
X257262Y247097D01*
X257253Y247076D01*
X257253Y245826D02*
X257312Y245826D01*
X257253Y246377D02*
X257312Y246377D01*
X257253Y246929D02*
X257312Y246929D01*
X258344Y248277D02*
X257261Y247096D01*
X257253Y247075D01*
X257263Y247055D01*
X257284Y247047D01*
X257305Y247056D01*
X258387Y248237D01*
X258395Y248259D01*
X258386Y248279D01*
X258364Y248287D01*
X258344Y248277D01*
X257721Y247598D02*
X257801Y247598D01*
X258226Y248149D02*
X258306Y248149D01*
X260531Y248287D02*
X258366Y248287D01*
X258345Y248278D01*
X258336Y248257D01*
X258345Y248236D01*
X258366Y248228D01*
X260531Y248228D01*
X260552Y248236D01*
X260561Y248257D01*
X260552Y248278D01*
X260531Y248287D01*
X261628Y247693D02*
X260545Y248283D01*
X260523Y248286D01*
X260505Y248272D01*
X260503Y248249D01*
X260517Y248231D01*
X261600Y247641D01*
X261622Y247638D01*
X261640Y247653D01*
X261642Y247675D01*
X261628Y247693D01*
X260593Y248190D02*
X260717Y248190D01*
X261643Y247076D02*
X261643Y247667D01*
X261635Y247688D01*
X261614Y247696D01*
X261593Y247688D01*
X261584Y247667D01*
X261584Y247076D01*
X261593Y247055D01*
X261614Y247047D01*
X261635Y247055D01*
X261643Y247076D01*
X261584Y247598D02*
X261643Y247598D01*
X260545Y246460D02*
X261628Y247050D01*
X261642Y247068D01*
X261640Y247090D01*
X261622Y247105D01*
X261600Y247102D01*
X260517Y246512D01*
X260503Y246494D01*
X260505Y246472D01*
X260523Y246457D01*
X260545Y246460D01*
X261428Y247009D02*
X261551Y247009D01*
X257283Y246456D02*
X260531Y246456D01*
X260552Y246465D01*
X260561Y246486D01*
X260552Y246507D01*
X260531Y246515D01*
X257283Y246515D01*
X257262Y246507D01*
X257253Y246486D01*
X257262Y246465D01*
X257283Y246456D01*
X262942Y244124D02*
X262942Y248257D01*
X262934Y248278D01*
X262913Y248287D01*
X262892Y248278D01*
X262883Y248257D01*
X262883Y244124D01*
X262892Y244103D01*
X262913Y244094D01*
X262934Y244103D01*
X262942Y244124D01*
X262883Y244645D02*
X262942Y244645D01*
X262883Y245196D02*
X262942Y245196D01*
X262883Y245748D02*
X262942Y245748D01*
X262883Y246299D02*
X262942Y246299D01*
X262883Y246850D02*
X262942Y246850D01*
X262883Y247401D02*
X262942Y247401D01*
X262883Y247952D02*
X262942Y247952D01*
X264515Y248277D02*
X262891Y246506D01*
X262883Y246484D01*
X262893Y246464D01*
X262914Y246456D01*
X262935Y246466D01*
X264559Y248237D01*
X264566Y248259D01*
X264557Y248279D01*
X264536Y248287D01*
X264515Y248277D01*
X263351Y247007D02*
X263431Y247007D01*
X263856Y247559D02*
X263936Y247559D01*
X264362Y248110D02*
X264442Y248110D01*
X267244Y248287D02*
X264537Y248287D01*
X264516Y248278D01*
X264507Y248257D01*
X264516Y248236D01*
X264537Y248228D01*
X267244Y248228D01*
X267264Y248236D01*
X267273Y248257D01*
X267264Y248278D01*
X267244Y248287D01*
X272874Y248287D02*
X268543Y248287D01*
X268522Y248278D01*
X268513Y248257D01*
X268522Y248236D01*
X268543Y248228D01*
X272874Y248228D01*
X272894Y248236D01*
X272903Y248257D01*
X272894Y248278D01*
X272874Y248287D01*
X268563Y244102D02*
X272894Y248236D01*
X272903Y248257D01*
X272895Y248278D01*
X272874Y248287D01*
X272853Y248279D01*
X268522Y244145D01*
X268513Y244124D01*
X268521Y244103D01*
X268542Y244094D01*
X268563Y244102D01*
X269047Y244645D02*
X269132Y244645D01*
X269624Y245196D02*
X269710Y245196D01*
X270201Y245748D02*
X270287Y245748D01*
X270779Y246299D02*
X270864Y246299D01*
X271356Y246850D02*
X271442Y246850D01*
X271934Y247401D02*
X272019Y247401D01*
X272511Y247952D02*
X272597Y247952D01*
X272874Y244153D02*
X268543Y244153D01*
X268522Y244144D01*
X268513Y244124D01*
X268522Y244103D01*
X268543Y244094D01*
X272874Y244094D01*
X272894Y244103D01*
X272903Y244124D01*
X272894Y244144D01*
X272874Y244153D01*
X278503Y244153D02*
X274173Y244153D01*
X274152Y244144D01*
X274143Y244124D01*
X274152Y244103D01*
X274173Y244094D01*
X278503Y244094D01*
X278524Y244103D01*
X278533Y244124D01*
X278524Y244144D01*
X278503Y244153D01*
X276309Y248257D02*
X276309Y244124D01*
X276317Y244103D01*
X276338Y244094D01*
X276359Y244103D01*
X276368Y244124D01*
X276368Y248257D01*
X276359Y248278D01*
X276338Y248287D01*
X276317Y248278D01*
X276309Y248257D01*
X276309Y244645D02*
X276368Y244645D01*
X276309Y245196D02*
X276368Y245196D01*
X276309Y245748D02*
X276368Y245748D01*
X276309Y246299D02*
X276368Y246299D01*
X276309Y246850D02*
X276368Y246850D01*
X276309Y247401D02*
X276368Y247401D01*
X276309Y247952D02*
X276368Y247952D01*
X276368Y250620D02*
X276368Y251210D01*
X276359Y251231D01*
X276338Y251240D01*
X276317Y251231D01*
X276309Y251210D01*
X276309Y250620D01*
X276317Y250599D01*
X276338Y250590D01*
X276359Y250599D01*
X276368Y250620D01*
X276309Y251141D02*
X276368Y251141D01*
X276338Y248287D02*
X274714Y248287D01*
X274693Y248278D01*
X274685Y248257D01*
X274693Y248236D01*
X274714Y248228D01*
X276338Y248228D01*
X276359Y248236D01*
X276368Y248257D01*
X276359Y248278D01*
X276338Y248287D01*
X283065Y244098D02*
X284147Y244688D01*
X284162Y244706D01*
X284159Y244728D01*
X284142Y244742D01*
X284119Y244740D01*
X283037Y244149D01*
X283022Y244132D01*
X283025Y244109D01*
X283042Y244095D01*
X283065Y244098D01*
X283948Y244646D02*
X284071Y244646D01*
X280885Y244094D02*
X283051Y244094D01*
X283072Y244103D01*
X283080Y244124D01*
X283072Y244144D01*
X283051Y244153D01*
X280885Y244153D01*
X280864Y244144D01*
X280856Y244124D01*
X280864Y244103D01*
X280885Y244094D01*
X279781Y245285D02*
X280864Y244104D01*
X280884Y244094D01*
X280905Y244102D01*
X280915Y244122D01*
X280907Y244143D01*
X279824Y245325D01*
X279804Y245334D01*
X279783Y245326D01*
X279773Y245306D01*
X279781Y245285D01*
X280367Y244645D02*
X280447Y244645D01*
X279862Y245196D02*
X279942Y245196D01*
X279773Y247076D02*
X279773Y245305D01*
X279782Y245284D01*
X279803Y245275D01*
X279824Y245284D01*
X279832Y245305D01*
X279832Y247076D01*
X279824Y247097D01*
X279803Y247106D01*
X279782Y247097D01*
X279773Y247076D01*
X279773Y245826D02*
X279832Y245826D01*
X279773Y246377D02*
X279832Y246377D01*
X279773Y246929D02*
X279832Y246929D01*
X280864Y248277D02*
X279781Y247096D01*
X279773Y247075D01*
X279783Y247055D01*
X279804Y247047D01*
X279824Y247056D01*
X280907Y248237D01*
X280915Y248259D01*
X280905Y248279D01*
X280884Y248287D01*
X280864Y248277D01*
X280241Y247598D02*
X280321Y247598D01*
X280746Y248149D02*
X280826Y248149D01*
X283051Y248287D02*
X280885Y248287D01*
X280864Y248278D01*
X280856Y248257D01*
X280864Y248236D01*
X280885Y248228D01*
X283051Y248228D01*
X283072Y248236D01*
X283080Y248257D01*
X283072Y248278D01*
X283051Y248287D01*
X284147Y247693D02*
X283065Y248283D01*
X283042Y248286D01*
X283025Y248272D01*
X283022Y248249D01*
X283037Y248231D01*
X284119Y247641D01*
X284142Y247638D01*
X284159Y247653D01*
X284162Y247675D01*
X284147Y247693D01*
X283113Y248190D02*
X283236Y248190D01*
X284163Y247076D02*
X284163Y247667D01*
X284154Y247688D01*
X284133Y247696D01*
X284112Y247688D01*
X284104Y247667D01*
X284104Y247076D01*
X284112Y247055D01*
X284133Y247047D01*
X284154Y247055D01*
X284163Y247076D01*
X284104Y247598D02*
X284163Y247598D01*
X283065Y246460D02*
X284147Y247050D01*
X284162Y247068D01*
X284159Y247090D01*
X284142Y247105D01*
X284119Y247102D01*
X283037Y246512D01*
X283022Y246494D01*
X283025Y246472D01*
X283042Y246457D01*
X283065Y246460D01*
X283948Y247009D02*
X284071Y247009D01*
X279803Y246456D02*
X283051Y246456D01*
X283072Y246465D01*
X283080Y246486D01*
X283072Y246507D01*
X283051Y246515D01*
X279803Y246515D01*
X279782Y246507D01*
X279773Y246486D01*
X279782Y246465D01*
X279803Y246456D01*
X289763Y244153D02*
X285433Y244153D01*
X285412Y244144D01*
X285403Y244124D01*
X285412Y244103D01*
X285433Y244094D01*
X289763Y244094D01*
X289784Y244103D01*
X289793Y244124D01*
X289784Y244144D01*
X289763Y244153D01*
X287598Y251240D02*
X286515Y251240D01*
X286494Y251231D01*
X286486Y251210D01*
X286494Y251189D01*
X286515Y251181D01*
X287598Y251181D01*
X287619Y251189D01*
X287627Y251210D01*
X287619Y251231D01*
X287598Y251240D01*
X287627Y244124D02*
X287627Y251210D01*
X287619Y251231D01*
X287598Y251240D01*
X287577Y251231D01*
X287568Y251210D01*
X287568Y244124D01*
X287577Y244103D01*
X287598Y244094D01*
X287619Y244103D01*
X287627Y244124D01*
X287568Y244645D02*
X287627Y244645D01*
X287568Y245196D02*
X287627Y245196D01*
X287568Y245748D02*
X287627Y245748D01*
X287568Y246299D02*
X287627Y246299D01*
X287568Y246850D02*
X287627Y246850D01*
X287568Y247401D02*
X287627Y247401D01*
X287568Y247952D02*
X287627Y247952D01*
X287568Y248503D02*
X287627Y248503D01*
X287568Y249055D02*
X287627Y249055D01*
X287568Y249606D02*
X287627Y249606D01*
X287568Y250157D02*
X287627Y250157D01*
X287568Y250708D02*
X287627Y250708D01*
X295393Y244153D02*
X291062Y244153D01*
X291042Y244144D01*
X291033Y244124D01*
X291042Y244103D01*
X291062Y244094D01*
X295393Y244094D01*
X295414Y244103D01*
X295423Y244124D01*
X295414Y244144D01*
X295393Y244153D01*
X293228Y251240D02*
X292145Y251240D01*
X292124Y251231D01*
X292116Y251210D01*
X292124Y251189D01*
X292145Y251181D01*
X293228Y251181D01*
X293249Y251189D01*
X293257Y251210D01*
X293249Y251231D01*
X293228Y251240D01*
X293257Y244124D02*
X293257Y251210D01*
X293249Y251231D01*
X293228Y251240D01*
X293207Y251231D01*
X293198Y251210D01*
X293198Y244124D01*
X293207Y244103D01*
X293228Y244094D01*
X293249Y244103D01*
X293257Y244124D01*
X293198Y244645D02*
X293257Y244645D01*
X293198Y245196D02*
X293257Y245196D01*
X293198Y245748D02*
X293257Y245748D01*
X293198Y246299D02*
X293257Y246299D01*
X293198Y246850D02*
X293257Y246850D01*
X293198Y247401D02*
X293257Y247401D01*
X293198Y247952D02*
X293257Y247952D01*
X293198Y248503D02*
X293257Y248503D01*
X293198Y249055D02*
X293257Y249055D01*
X293198Y249606D02*
X293257Y249606D01*
X293198Y250157D02*
X293257Y250157D01*
X293198Y250708D02*
X293257Y250708D01*
X299955Y244098D02*
X301037Y244688D01*
X301051Y244706D01*
X301049Y244728D01*
X301031Y244742D01*
X301009Y244740D01*
X299926Y244149D01*
X299912Y244132D01*
X299915Y244109D01*
X299932Y244095D01*
X299955Y244098D01*
X300837Y244646D02*
X300961Y244646D01*
X297775Y244094D02*
X299940Y244094D01*
X299961Y244103D01*
X299970Y244124D01*
X299961Y244144D01*
X299940Y244153D01*
X297775Y244153D01*
X297754Y244144D01*
X297746Y244124D01*
X297754Y244103D01*
X297775Y244094D01*
X296671Y245285D02*
X297753Y244104D01*
X297774Y244094D01*
X297795Y244102D01*
X297805Y244122D01*
X297797Y244143D01*
X296714Y245325D01*
X296694Y245334D01*
X296672Y245326D01*
X296663Y245306D01*
X296671Y245285D01*
X297257Y244645D02*
X297337Y244645D01*
X296752Y245196D02*
X296832Y245196D01*
X296663Y247076D02*
X296663Y245305D01*
X296672Y245284D01*
X296692Y245275D01*
X296713Y245284D01*
X296722Y245305D01*
X296722Y247076D01*
X296713Y247097D01*
X296692Y247106D01*
X296672Y247097D01*
X296663Y247076D01*
X296663Y245826D02*
X296722Y245826D01*
X296663Y246377D02*
X296722Y246377D01*
X296663Y246929D02*
X296722Y246929D01*
X297753Y248277D02*
X296671Y247096D01*
X296663Y247075D01*
X296672Y247055D01*
X296694Y247047D01*
X296714Y247056D01*
X297797Y248237D01*
X297805Y248259D01*
X297795Y248279D01*
X297774Y248287D01*
X297753Y248277D01*
X297131Y247598D02*
X297211Y247598D01*
X297636Y248149D02*
X297716Y248149D01*
X299940Y248287D02*
X297775Y248287D01*
X297754Y248278D01*
X297746Y248257D01*
X297754Y248236D01*
X297775Y248228D01*
X299940Y248228D01*
X299961Y248236D01*
X299970Y248257D01*
X299961Y248278D01*
X299940Y248287D01*
X301037Y247693D02*
X299955Y248283D01*
X299932Y248286D01*
X299915Y248272D01*
X299912Y248249D01*
X299926Y248231D01*
X301009Y247641D01*
X301031Y247638D01*
X301049Y247653D01*
X301051Y247675D01*
X301037Y247693D01*
X300003Y248190D02*
X300126Y248190D01*
X301053Y247076D02*
X301053Y247667D01*
X301044Y247688D01*
X301023Y247696D01*
X301002Y247688D01*
X300994Y247667D01*
X300994Y247076D01*
X301002Y247055D01*
X301023Y247047D01*
X301044Y247055D01*
X301053Y247076D01*
X300994Y247598D02*
X301053Y247598D01*
X299955Y246460D02*
X301037Y247050D01*
X301051Y247068D01*
X301049Y247090D01*
X301031Y247105D01*
X301009Y247102D01*
X299926Y246512D01*
X299912Y246494D01*
X299915Y246472D01*
X299932Y246457D01*
X299955Y246460D01*
X300837Y247009D02*
X300961Y247009D01*
X296692Y246456D02*
X299940Y246456D01*
X299961Y246465D01*
X299970Y246486D01*
X299961Y246507D01*
X299940Y246515D01*
X296692Y246515D01*
X296672Y246507D01*
X296663Y246486D01*
X296672Y246465D01*
X296692Y246456D01*
X307923Y251210D02*
X307923Y244124D01*
X307931Y244103D01*
X307952Y244094D01*
X307973Y244103D01*
X307982Y244124D01*
X307982Y251210D01*
X307973Y251231D01*
X307952Y251240D01*
X307931Y251231D01*
X307923Y251210D01*
X307923Y244645D02*
X307982Y244645D01*
X307923Y245196D02*
X307982Y245196D01*
X307923Y245748D02*
X307982Y245748D01*
X307923Y246299D02*
X307982Y246299D01*
X307923Y246850D02*
X307982Y246850D01*
X307923Y247401D02*
X307982Y247401D01*
X307923Y247952D02*
X307982Y247952D01*
X307923Y248503D02*
X307982Y248503D01*
X307923Y249055D02*
X307982Y249055D01*
X307923Y249606D02*
X307982Y249606D01*
X307923Y250157D02*
X307982Y250157D01*
X307923Y250708D02*
X307982Y250708D01*
X312308Y244139D02*
X307977Y251226D01*
X307959Y251239D01*
X307937Y251235D01*
X307924Y251217D01*
X307927Y251195D01*
X312258Y244108D01*
X312276Y244095D01*
X312298Y244098D01*
X312312Y244117D01*
X312308Y244139D01*
X311929Y244646D02*
X311998Y244646D01*
X311592Y245197D02*
X311661Y245197D01*
X311255Y245748D02*
X311325Y245748D01*
X310919Y246300D02*
X310988Y246300D01*
X310582Y246851D02*
X310651Y246851D01*
X310245Y247402D02*
X310314Y247402D01*
X309908Y247953D02*
X309977Y247953D01*
X309571Y248504D02*
X309640Y248504D01*
X309234Y249055D02*
X309304Y249055D01*
X308898Y249607D02*
X308967Y249607D01*
X308561Y250158D02*
X308630Y250158D01*
X308224Y250709D02*
X308293Y250709D01*
X312253Y251210D02*
X312253Y244124D01*
X312262Y244103D01*
X312283Y244094D01*
X312304Y244103D01*
X312312Y244124D01*
X312312Y251210D01*
X312304Y251231D01*
X312283Y251240D01*
X312262Y251231D01*
X312253Y251210D01*
X312253Y244645D02*
X312312Y244645D01*
X312253Y245196D02*
X312312Y245196D01*
X312253Y245748D02*
X312312Y245748D01*
X312253Y246299D02*
X312312Y246299D01*
X312253Y246850D02*
X312312Y246850D01*
X312253Y247401D02*
X312312Y247401D01*
X312253Y247952D02*
X312312Y247952D01*
X312253Y248503D02*
X312312Y248503D01*
X312253Y249055D02*
X312312Y249055D01*
X312253Y249606D02*
X312312Y249606D01*
X312253Y250157D02*
X312312Y250157D01*
X312253Y250708D02*
X312312Y250708D01*
X313612Y245305D02*
X313612Y248257D01*
X313603Y248278D01*
X313582Y248287D01*
X313561Y248278D01*
X313553Y248257D01*
X313553Y245305D01*
X313561Y245284D01*
X313582Y245275D01*
X313603Y245284D01*
X313612Y245305D01*
X313553Y245826D02*
X313612Y245826D01*
X313553Y246377D02*
X313612Y246377D01*
X313553Y246929D02*
X313612Y246929D01*
X313553Y247480D02*
X313612Y247480D01*
X313553Y248031D02*
X313612Y248031D01*
X314687Y244143D02*
X313604Y245325D01*
X313583Y245334D01*
X313562Y245326D01*
X313553Y245306D01*
X313560Y245285D01*
X314643Y244104D01*
X314664Y244094D01*
X314685Y244102D01*
X314694Y244122D01*
X314687Y244143D01*
X314147Y244645D02*
X314227Y244645D01*
X313641Y245196D02*
X313721Y245196D01*
X316830Y244153D02*
X314665Y244153D01*
X314644Y244144D01*
X314635Y244124D01*
X314644Y244103D01*
X314665Y244094D01*
X316830Y244094D01*
X316851Y244103D01*
X316860Y244124D01*
X316851Y244144D01*
X316830Y244153D01*
X317891Y245325D02*
X316808Y244143D01*
X316801Y244122D01*
X316810Y244102D01*
X316831Y244094D01*
X316852Y244104D01*
X317935Y245285D01*
X317942Y245306D01*
X317933Y245326D01*
X317912Y245334D01*
X317891Y245325D01*
X317268Y244645D02*
X317348Y244645D01*
X317774Y245196D02*
X317854Y245196D01*
X317942Y244124D02*
X317942Y248257D01*
X317934Y248278D01*
X317913Y248287D01*
X317892Y248278D01*
X317883Y248257D01*
X317883Y244124D01*
X317892Y244103D01*
X317913Y244094D01*
X317934Y244103D01*
X317942Y244124D01*
X317883Y244645D02*
X317942Y244645D01*
X317883Y245196D02*
X317942Y245196D01*
X317883Y245748D02*
X317942Y245748D01*
X317883Y246299D02*
X317942Y246299D01*
X317883Y246850D02*
X317942Y246850D01*
X317883Y247401D02*
X317942Y247401D01*
X317883Y247952D02*
X317942Y247952D01*
X319242Y245305D02*
X319242Y251210D01*
X319233Y251231D01*
X319212Y251240D01*
X319191Y251231D01*
X319183Y251210D01*
X319183Y245305D01*
X319191Y245284D01*
X319212Y245275D01*
X319233Y245284D01*
X319242Y245305D01*
X319183Y245826D02*
X319242Y245826D01*
X319183Y246377D02*
X319242Y246377D01*
X319183Y246929D02*
X319242Y246929D01*
X319183Y247480D02*
X319242Y247480D01*
X319183Y248031D02*
X319242Y248031D01*
X319183Y248582D02*
X319242Y248582D01*
X319183Y249133D02*
X319242Y249133D01*
X319183Y249685D02*
X319242Y249685D01*
X319183Y250236D02*
X319242Y250236D01*
X319183Y250787D02*
X319242Y250787D01*
X320317Y244143D02*
X319234Y245325D01*
X319213Y245334D01*
X319192Y245326D01*
X319183Y245306D01*
X319190Y245285D01*
X320273Y244104D01*
X320293Y244094D01*
X320315Y244102D01*
X320324Y244122D01*
X320317Y244143D01*
X319777Y244645D02*
X319857Y244645D01*
X319271Y245196D02*
X319351Y245196D01*
X323543Y244153D02*
X320295Y244153D01*
X320274Y244144D01*
X320265Y244124D01*
X320274Y244103D01*
X320295Y244094D01*
X323543Y244094D01*
X323564Y244103D01*
X323572Y244124D01*
X323564Y244144D01*
X323543Y244153D01*
X321377Y248287D02*
X319212Y248287D01*
X319191Y248278D01*
X319183Y248257D01*
X319191Y248236D01*
X319212Y248228D01*
X321377Y248228D01*
X321398Y248236D01*
X321407Y248257D01*
X321398Y248278D01*
X321377Y248287D01*
X329173Y248287D02*
X324842Y248287D01*
X324821Y248278D01*
X324812Y248257D01*
X324821Y248236D01*
X324842Y248228D01*
X329173Y248228D01*
X329194Y248236D01*
X329202Y248257D01*
X329194Y248278D01*
X329173Y248287D01*
X324862Y244102D02*
X329193Y248236D01*
X329202Y248257D01*
X329194Y248278D01*
X329173Y248287D01*
X329152Y248279D01*
X324822Y244145D01*
X324813Y244124D01*
X324821Y244103D01*
X324841Y244094D01*
X324862Y244102D01*
X325346Y244645D02*
X325431Y244645D01*
X325923Y245196D02*
X326009Y245196D01*
X326501Y245748D02*
X326586Y245748D01*
X327078Y246299D02*
X327164Y246299D01*
X327655Y246850D02*
X327741Y246850D01*
X328233Y247401D02*
X328318Y247401D01*
X328810Y247952D02*
X328896Y247952D01*
X329173Y244153D02*
X324842Y244153D01*
X324821Y244144D01*
X324812Y244124D01*
X324821Y244103D01*
X324842Y244094D01*
X329173Y244094D01*
X329194Y244103D01*
X329202Y244124D01*
X329194Y244144D01*
X329173Y244153D01*
X330501Y245305D02*
X330501Y248257D01*
X330493Y248278D01*
X330472Y248287D01*
X330451Y248278D01*
X330442Y248257D01*
X330442Y245305D01*
X330451Y245284D01*
X330472Y245275D01*
X330493Y245284D01*
X330501Y245305D01*
X330442Y245826D02*
X330501Y245826D01*
X330442Y246377D02*
X330501Y246377D01*
X330442Y246929D02*
X330501Y246929D01*
X330442Y247480D02*
X330501Y247480D01*
X330442Y248031D02*
X330501Y248031D01*
X331576Y244143D02*
X330494Y245325D01*
X330473Y245334D01*
X330452Y245326D01*
X330442Y245306D01*
X330450Y245285D01*
X331533Y244104D01*
X331553Y244094D01*
X331575Y244102D01*
X331584Y244122D01*
X331576Y244143D01*
X331036Y244645D02*
X331116Y244645D01*
X330531Y245196D02*
X330611Y245196D01*
X333720Y244153D02*
X331555Y244153D01*
X331534Y244144D01*
X331525Y244124D01*
X331534Y244103D01*
X331555Y244094D01*
X333720Y244094D01*
X333741Y244103D01*
X333750Y244124D01*
X333741Y244144D01*
X333720Y244153D01*
X334781Y245325D02*
X333698Y244143D01*
X333690Y244122D01*
X333700Y244102D01*
X333721Y244094D01*
X333742Y244104D01*
X334824Y245285D01*
X334832Y245306D01*
X334823Y245326D01*
X334801Y245334D01*
X334781Y245325D01*
X334158Y244645D02*
X334238Y244645D01*
X334663Y245196D02*
X334743Y245196D01*
X334832Y244124D02*
X334832Y248257D01*
X334824Y248278D01*
X334803Y248287D01*
X334782Y248278D01*
X334773Y248257D01*
X334773Y244124D01*
X334782Y244103D01*
X334803Y244094D01*
X334824Y244103D01*
X334832Y244124D01*
X334773Y244645D02*
X334832Y244645D01*
X334773Y245196D02*
X334832Y245196D01*
X334773Y245748D02*
X334832Y245748D01*
X334773Y246299D02*
X334832Y246299D01*
X334773Y246850D02*
X334832Y246850D01*
X334773Y247401D02*
X334832Y247401D01*
X334773Y247952D02*
X334832Y247952D01*
X336072Y248257D02*
X336072Y244124D01*
X336081Y244103D01*
X336102Y244094D01*
X336123Y244103D01*
X336131Y244124D01*
X336131Y248257D01*
X336123Y248278D01*
X336102Y248287D01*
X336081Y248278D01*
X336072Y248257D01*
X336072Y244645D02*
X336131Y244645D01*
X336072Y245196D02*
X336131Y245196D01*
X336072Y245748D02*
X336131Y245748D01*
X336072Y246299D02*
X336131Y246299D01*
X336072Y246850D02*
X336131Y246850D01*
X336072Y247401D02*
X336131Y247401D01*
X336072Y247952D02*
X336131Y247952D01*
X337163Y248277D02*
X336080Y247096D01*
X336072Y247075D01*
X336082Y247055D01*
X336103Y247047D01*
X336124Y247056D01*
X337206Y248237D01*
X337214Y248259D01*
X337204Y248279D01*
X337183Y248287D01*
X337163Y248277D01*
X336540Y247598D02*
X336620Y247598D01*
X337045Y248149D02*
X337125Y248149D01*
X339350Y248287D02*
X337185Y248287D01*
X337164Y248278D01*
X337155Y248257D01*
X337164Y248236D01*
X337185Y248228D01*
X339350Y248228D01*
X339371Y248236D01*
X339379Y248257D01*
X339371Y248278D01*
X339350Y248287D01*
X340454Y247096D02*
X339372Y248277D01*
X339351Y248287D01*
X339330Y248279D01*
X339320Y248259D01*
X339328Y248237D01*
X340411Y247056D01*
X340431Y247047D01*
X340453Y247055D01*
X340462Y247075D01*
X340454Y247096D01*
X339914Y247598D02*
X339994Y247598D01*
X339409Y248149D02*
X339489Y248149D01*
X340462Y244124D02*
X340462Y247076D01*
X340453Y247097D01*
X340433Y247106D01*
X340412Y247097D01*
X340403Y247076D01*
X340403Y244124D01*
X340412Y244103D01*
X340433Y244094D01*
X340453Y244103D01*
X340462Y244124D01*
X340403Y244645D02*
X340462Y244645D01*
X340403Y245196D02*
X340462Y245196D01*
X340403Y245748D02*
X340462Y245748D01*
X340403Y246299D02*
X340462Y246299D01*
X340403Y246850D02*
X340462Y246850D01*
X345002Y244104D02*
X346084Y245285D01*
X346092Y245306D01*
X346082Y245326D01*
X346061Y245334D01*
X346041Y245325D01*
X344958Y244143D01*
X344950Y244122D01*
X344960Y244102D01*
X344981Y244094D01*
X345002Y244104D01*
X345418Y244645D02*
X345498Y244645D01*
X345923Y245196D02*
X346003Y245196D01*
X342814Y244094D02*
X344980Y244094D01*
X345001Y244103D01*
X345009Y244124D01*
X345001Y244144D01*
X344980Y244153D01*
X342814Y244153D01*
X342794Y244144D01*
X342785Y244124D01*
X342794Y244103D01*
X342814Y244094D01*
X341710Y245285D02*
X342793Y244104D01*
X342813Y244094D01*
X342834Y244102D01*
X342844Y244122D01*
X342836Y244143D01*
X341754Y245325D01*
X341733Y245334D01*
X341712Y245326D01*
X341702Y245306D01*
X341710Y245285D01*
X342296Y244645D02*
X342376Y244645D01*
X341791Y245196D02*
X341871Y245196D01*
X341702Y247076D02*
X341702Y245305D01*
X341711Y245284D01*
X341732Y245275D01*
X341753Y245284D01*
X341761Y245305D01*
X341761Y247076D01*
X341753Y247097D01*
X341732Y247106D01*
X341711Y247097D01*
X341702Y247076D01*
X341702Y245826D02*
X341761Y245826D01*
X341702Y246377D02*
X341761Y246377D01*
X341702Y246929D02*
X341761Y246929D01*
X342793Y248277D02*
X341710Y247096D01*
X341702Y247075D01*
X341712Y247055D01*
X341733Y247047D01*
X341754Y247056D01*
X342836Y248237D01*
X342844Y248259D01*
X342834Y248279D01*
X342813Y248287D01*
X342793Y248277D01*
X342170Y247598D02*
X342250Y247598D01*
X342675Y248149D02*
X342755Y248149D01*
X344980Y248287D02*
X342814Y248287D01*
X342794Y248278D01*
X342785Y248257D01*
X342794Y248236D01*
X342814Y248228D01*
X344980Y248228D01*
X345001Y248236D01*
X345009Y248257D01*
X345001Y248278D01*
X344980Y248287D01*
X346084Y247096D02*
X345002Y248277D01*
X344981Y248287D01*
X344960Y248279D01*
X344950Y248259D01*
X344958Y248237D01*
X346041Y247056D01*
X346061Y247047D01*
X346082Y247055D01*
X346092Y247075D01*
X346084Y247096D01*
X345544Y247598D02*
X345624Y247598D01*
X345039Y248149D02*
X345119Y248149D01*
X346092Y242942D02*
X346092Y247076D01*
X346083Y247097D01*
X346062Y247106D01*
X346042Y247097D01*
X346033Y247076D01*
X346033Y242942D01*
X346042Y242922D01*
X346062Y242913D01*
X346083Y242922D01*
X346092Y242942D01*
X346033Y243464D02*
X346092Y243464D01*
X346033Y244015D02*
X346092Y244015D01*
X346033Y244566D02*
X346092Y244566D01*
X346033Y245118D02*
X346092Y245118D01*
X346033Y245669D02*
X346092Y245669D01*
X346033Y246220D02*
X346092Y246220D01*
X346033Y246771D02*
X346092Y246771D01*
X345002Y241741D02*
X346084Y242922D01*
X346092Y242944D01*
X346082Y242964D01*
X346061Y242972D01*
X346041Y242962D01*
X344958Y241781D01*
X344950Y241760D01*
X344960Y241740D01*
X344981Y241732D01*
X345002Y241741D01*
X345418Y242283D02*
X345498Y242283D01*
X345923Y242834D02*
X346003Y242834D01*
X341732Y241732D02*
X344980Y241732D01*
X345001Y241740D01*
X345009Y241761D01*
X345001Y241782D01*
X344980Y241791D01*
X341732Y241791D01*
X341711Y241782D01*
X341702Y241761D01*
X341711Y241740D01*
X341732Y241732D01*
X357322Y244153D02*
X352992Y244153D01*
X352971Y244144D01*
X352962Y244124D01*
X352971Y244103D01*
X352992Y244094D01*
X357322Y244094D01*
X357343Y244103D01*
X357352Y244124D01*
X357343Y244144D01*
X357322Y244153D01*
X355127Y248257D02*
X355127Y244124D01*
X355136Y244103D01*
X355157Y244094D01*
X355178Y244103D01*
X355187Y244124D01*
X355187Y248257D01*
X355178Y248278D01*
X355157Y248287D01*
X355136Y248278D01*
X355127Y248257D01*
X355127Y244645D02*
X355187Y244645D01*
X355127Y245196D02*
X355187Y245196D01*
X355127Y245748D02*
X355187Y245748D01*
X355127Y246299D02*
X355187Y246299D01*
X355127Y246850D02*
X355187Y246850D01*
X355127Y247401D02*
X355187Y247401D01*
X355127Y247952D02*
X355187Y247952D01*
X355187Y250620D02*
X355187Y251210D01*
X355178Y251231D01*
X355157Y251240D01*
X355136Y251231D01*
X355127Y251210D01*
X355127Y250620D01*
X355136Y250599D01*
X355157Y250590D01*
X355178Y250599D01*
X355187Y250620D01*
X355127Y251141D02*
X355187Y251141D01*
X355157Y248287D02*
X353533Y248287D01*
X353512Y248278D01*
X353503Y248257D01*
X353512Y248236D01*
X353533Y248228D01*
X355157Y248228D01*
X355178Y248236D01*
X355187Y248257D01*
X355178Y248278D01*
X355157Y248287D01*
X362411Y244153D02*
X358622Y244153D01*
X358601Y244144D01*
X358592Y244124D01*
X358601Y244103D01*
X358622Y244094D01*
X362411Y244094D01*
X362432Y244103D01*
X362440Y244124D01*
X362432Y244144D01*
X362411Y244153D01*
X362925Y245317D02*
X362384Y244136D01*
X362383Y244113D01*
X362399Y244097D01*
X362421Y244096D01*
X362438Y244111D01*
X362979Y245292D01*
X362980Y245315D01*
X362965Y245331D01*
X362942Y245332D01*
X362925Y245317D01*
X362618Y244647D02*
X362683Y244647D01*
X362871Y245198D02*
X362936Y245198D01*
X362384Y246473D02*
X362925Y245292D01*
X362942Y245277D01*
X362965Y245278D01*
X362980Y245294D01*
X362979Y245317D01*
X362438Y246498D01*
X362421Y246513D01*
X362399Y246513D01*
X362383Y246496D01*
X362384Y246473D01*
X362680Y245828D02*
X362745Y245828D01*
X362427Y246379D02*
X362492Y246379D01*
X359163Y246456D02*
X362411Y246456D01*
X362432Y246465D01*
X362440Y246486D01*
X362432Y246507D01*
X362411Y246515D01*
X359163Y246515D01*
X359142Y246507D01*
X359133Y246486D01*
X359142Y246465D01*
X359163Y246456D01*
X358595Y247655D02*
X359136Y246473D01*
X359153Y246458D01*
X359175Y246459D01*
X359191Y246475D01*
X359190Y246498D01*
X358648Y247679D01*
X358632Y247695D01*
X358609Y247694D01*
X358594Y247677D01*
X358595Y247655D01*
X358890Y247009D02*
X358955Y247009D01*
X358638Y247560D02*
X358703Y247560D01*
X359141Y248277D02*
X358600Y247687D01*
X358592Y247666D01*
X358602Y247645D01*
X358623Y247637D01*
X358643Y247647D01*
X359185Y248237D01*
X359192Y248259D01*
X359183Y248279D01*
X359162Y248287D01*
X359141Y248277D01*
X359060Y248189D02*
X359140Y248189D01*
X362952Y248287D02*
X359163Y248287D01*
X359142Y248278D01*
X359133Y248257D01*
X359142Y248236D01*
X359163Y248228D01*
X362952Y248228D01*
X362973Y248236D01*
X362982Y248257D01*
X362973Y248278D01*
X362952Y248287D01*
X364281Y245305D02*
X364281Y251210D01*
X364272Y251231D01*
X364251Y251240D01*
X364231Y251231D01*
X364222Y251210D01*
X364222Y245305D01*
X364231Y245284D01*
X364251Y245275D01*
X364272Y245284D01*
X364281Y245305D01*
X364222Y245826D02*
X364281Y245826D01*
X364222Y246377D02*
X364281Y246377D01*
X364222Y246929D02*
X364281Y246929D01*
X364222Y247480D02*
X364281Y247480D01*
X364222Y248031D02*
X364281Y248031D01*
X364222Y248582D02*
X364281Y248582D01*
X364222Y249133D02*
X364281Y249133D01*
X364222Y249685D02*
X364281Y249685D01*
X364222Y250236D02*
X364281Y250236D01*
X364222Y250787D02*
X364281Y250787D01*
X365356Y244143D02*
X364273Y245325D01*
X364253Y245334D01*
X364232Y245326D01*
X364222Y245306D01*
X364230Y245285D01*
X365312Y244104D01*
X365333Y244094D01*
X365354Y244102D01*
X365364Y244122D01*
X365356Y244143D01*
X364816Y244645D02*
X364896Y244645D01*
X364311Y245196D02*
X364391Y245196D01*
X368582Y244153D02*
X365334Y244153D01*
X365313Y244144D01*
X365305Y244124D01*
X365313Y244103D01*
X365334Y244094D01*
X368582Y244094D01*
X368603Y244103D01*
X368612Y244124D01*
X368603Y244144D01*
X368582Y244153D01*
X366417Y248287D02*
X364251Y248287D01*
X364231Y248278D01*
X364222Y248257D01*
X364231Y248236D01*
X364251Y248228D01*
X366417Y248228D01*
X366438Y248236D01*
X366446Y248257D01*
X366438Y248278D01*
X366417Y248287D01*
X379301Y244153D02*
X375511Y244153D01*
X375490Y244144D01*
X375482Y244124D01*
X375490Y244103D01*
X375511Y244094D01*
X379301Y244094D01*
X379322Y244103D01*
X379330Y244124D01*
X379322Y244144D01*
X379301Y244153D01*
X379815Y245317D02*
X379274Y244136D01*
X379273Y244113D01*
X379288Y244097D01*
X379311Y244096D01*
X379328Y244111D01*
X379869Y245292D01*
X379870Y245315D01*
X379854Y245331D01*
X379832Y245332D01*
X379815Y245317D01*
X379508Y244647D02*
X379573Y244647D01*
X379761Y245198D02*
X379826Y245198D01*
X379274Y246473D02*
X379815Y245292D01*
X379832Y245277D01*
X379854Y245278D01*
X379870Y245294D01*
X379869Y245317D01*
X379328Y246498D01*
X379311Y246513D01*
X379288Y246513D01*
X379273Y246496D01*
X379274Y246473D01*
X379570Y245828D02*
X379635Y245828D01*
X379317Y246379D02*
X379382Y246379D01*
X376053Y246456D02*
X379301Y246456D01*
X379322Y246465D01*
X379330Y246486D01*
X379322Y246507D01*
X379301Y246515D01*
X376053Y246515D01*
X376032Y246507D01*
X376023Y246486D01*
X376032Y246465D01*
X376053Y246456D01*
X375484Y247655D02*
X376026Y246473D01*
X376042Y246458D01*
X376065Y246459D01*
X376080Y246475D01*
X376079Y246498D01*
X375538Y247679D01*
X375522Y247695D01*
X375499Y247694D01*
X375484Y247677D01*
X375484Y247655D01*
X375780Y247009D02*
X375845Y247009D01*
X375528Y247560D02*
X375593Y247560D01*
X376031Y248277D02*
X375490Y247687D01*
X375482Y247666D01*
X375491Y247645D01*
X375513Y247637D01*
X375533Y247647D01*
X376074Y248237D01*
X376082Y248259D01*
X376073Y248279D01*
X376051Y248287D01*
X376031Y248277D01*
X375949Y248189D02*
X376030Y248189D01*
X379842Y248287D02*
X376053Y248287D01*
X376032Y248278D01*
X376023Y248257D01*
X376032Y248236D01*
X376053Y248228D01*
X379842Y248228D01*
X379863Y248236D01*
X379872Y248257D01*
X379863Y248278D01*
X379842Y248287D01*
X381171Y245305D02*
X381171Y251210D01*
X381162Y251231D01*
X381141Y251240D01*
X381120Y251231D01*
X381112Y251210D01*
X381112Y245305D01*
X381120Y245284D01*
X381141Y245275D01*
X381162Y245284D01*
X381171Y245305D01*
X381112Y245826D02*
X381171Y245826D01*
X381112Y246377D02*
X381171Y246377D01*
X381112Y246929D02*
X381171Y246929D01*
X381112Y247480D02*
X381171Y247480D01*
X381112Y248031D02*
X381171Y248031D01*
X381112Y248582D02*
X381171Y248582D01*
X381112Y249133D02*
X381171Y249133D01*
X381112Y249685D02*
X381171Y249685D01*
X381112Y250236D02*
X381171Y250236D01*
X381112Y250787D02*
X381171Y250787D01*
X382246Y244143D02*
X381163Y245325D01*
X381143Y245334D01*
X381121Y245326D01*
X381112Y245306D01*
X381119Y245285D01*
X382202Y244104D01*
X382223Y244094D01*
X382244Y244102D01*
X382253Y244122D01*
X382246Y244143D01*
X381706Y244645D02*
X381786Y244645D01*
X381200Y245196D02*
X381281Y245196D01*
X385472Y244153D02*
X382224Y244153D01*
X382203Y244144D01*
X382194Y244124D01*
X382203Y244103D01*
X382224Y244094D01*
X385472Y244094D01*
X385493Y244103D01*
X385501Y244124D01*
X385493Y244144D01*
X385472Y244153D01*
X383307Y248287D02*
X381141Y248287D01*
X381120Y248278D01*
X381112Y248257D01*
X381120Y248236D01*
X381141Y248228D01*
X383307Y248228D01*
X383327Y248236D01*
X383336Y248257D01*
X383327Y248278D01*
X383307Y248287D01*
X386801Y244124D02*
X386801Y248257D01*
X386792Y248278D01*
X386771Y248287D01*
X386750Y248278D01*
X386742Y248257D01*
X386742Y244124D01*
X386750Y244103D01*
X386771Y244094D01*
X386792Y244103D01*
X386801Y244124D01*
X386742Y244645D02*
X386801Y244645D01*
X386742Y245196D02*
X386801Y245196D01*
X386742Y245748D02*
X386801Y245748D01*
X386742Y246299D02*
X386801Y246299D01*
X386742Y246850D02*
X386801Y246850D01*
X386742Y247401D02*
X386801Y247401D01*
X386742Y247952D02*
X386801Y247952D01*
X388373Y248277D02*
X386749Y246506D01*
X386742Y246484D01*
X386751Y246464D01*
X386772Y246456D01*
X386793Y246466D01*
X388417Y248237D01*
X388425Y248259D01*
X388415Y248279D01*
X388394Y248287D01*
X388373Y248277D01*
X387209Y247007D02*
X387289Y247007D01*
X387715Y247559D02*
X387795Y247559D01*
X388220Y248110D02*
X388300Y248110D01*
X391102Y248287D02*
X388395Y248287D01*
X388374Y248278D01*
X388366Y248257D01*
X388374Y248236D01*
X388395Y248228D01*
X391102Y248228D01*
X391123Y248236D01*
X391131Y248257D01*
X391123Y248278D01*
X391102Y248287D01*
X393506Y244143D02*
X392423Y245325D01*
X392402Y245334D01*
X392381Y245326D01*
X392372Y245306D01*
X392379Y245285D01*
X393462Y244104D01*
X393482Y244094D01*
X393504Y244102D01*
X393513Y244122D01*
X393506Y244143D01*
X392965Y244645D02*
X393046Y244645D01*
X392460Y245196D02*
X392540Y245196D01*
X395649Y244153D02*
X393484Y244153D01*
X393463Y244144D01*
X393454Y244124D01*
X393463Y244103D01*
X393484Y244094D01*
X395649Y244094D01*
X395670Y244103D01*
X395679Y244124D01*
X395670Y244144D01*
X395649Y244153D01*
X396710Y245325D02*
X395627Y244143D01*
X395620Y244122D01*
X395629Y244102D01*
X395650Y244094D01*
X395671Y244104D01*
X396754Y245285D01*
X396761Y245306D01*
X396752Y245326D01*
X396731Y245334D01*
X396710Y245325D01*
X396087Y244645D02*
X396167Y244645D01*
X396593Y245196D02*
X396673Y245196D01*
X392372Y247076D02*
X392372Y245305D01*
X392380Y245284D01*
X392401Y245275D01*
X392422Y245284D01*
X392431Y245305D01*
X392431Y247076D01*
X392422Y247097D01*
X392401Y247106D01*
X392380Y247097D01*
X392372Y247076D01*
X392372Y245826D02*
X392431Y245826D01*
X392372Y246377D02*
X392431Y246377D01*
X392372Y246929D02*
X392431Y246929D01*
X393462Y248277D02*
X392379Y247096D01*
X392372Y247075D01*
X392381Y247055D01*
X392402Y247047D01*
X392423Y247056D01*
X393506Y248237D01*
X393513Y248259D01*
X393504Y248279D01*
X393482Y248287D01*
X393462Y248277D01*
X392839Y247598D02*
X392919Y247598D01*
X393344Y248149D02*
X393425Y248149D01*
X395649Y248287D02*
X393484Y248287D01*
X393463Y248278D01*
X393454Y248257D01*
X393463Y248236D01*
X393484Y248228D01*
X395649Y248228D01*
X395670Y248236D01*
X395679Y248257D01*
X395670Y248278D01*
X395649Y248287D01*
X396754Y247096D02*
X395671Y248277D01*
X395650Y248287D01*
X395629Y248279D01*
X395620Y248259D01*
X395627Y248237D01*
X396710Y247056D01*
X396731Y247047D01*
X396752Y247055D01*
X396761Y247075D01*
X396754Y247096D01*
X396214Y247598D02*
X396294Y247598D01*
X395708Y248149D02*
X395788Y248149D01*
X396761Y244124D02*
X396761Y247076D01*
X396753Y247097D01*
X396732Y247106D01*
X396711Y247097D01*
X396702Y247076D01*
X396702Y244124D01*
X396711Y244103D01*
X396732Y244094D01*
X396753Y244103D01*
X396761Y244124D01*
X396702Y244645D02*
X396761Y244645D01*
X396702Y245196D02*
X396761Y245196D01*
X396702Y245748D02*
X396761Y245748D01*
X396702Y246299D02*
X396761Y246299D01*
X396702Y246850D02*
X396761Y246850D01*
X398001Y250029D02*
X398001Y241761D01*
X398010Y241740D01*
X398031Y241732D01*
X398052Y241740D01*
X398061Y241761D01*
X398061Y250029D01*
X398052Y250050D01*
X398031Y250059D01*
X398010Y250050D01*
X398001Y250029D01*
X398001Y242283D02*
X398061Y242283D01*
X398001Y242834D02*
X398061Y242834D01*
X398001Y243385D02*
X398061Y243385D01*
X398001Y243937D02*
X398061Y243937D01*
X398001Y244488D02*
X398061Y244488D01*
X398001Y245039D02*
X398061Y245039D01*
X398001Y245590D02*
X398061Y245590D01*
X398001Y246141D02*
X398061Y246141D01*
X398001Y246692D02*
X398061Y246692D01*
X398001Y247244D02*
X398061Y247244D01*
X398001Y247795D02*
X398061Y247795D01*
X398001Y248346D02*
X398061Y248346D01*
X398001Y248897D02*
X398061Y248897D01*
X398001Y249448D02*
X398061Y249448D01*
X398001Y250000D02*
X398061Y250000D01*
X399092Y251230D02*
X398009Y250049D01*
X398001Y250028D01*
X398011Y250007D01*
X398032Y250000D01*
X398053Y250009D01*
X399135Y251190D01*
X399143Y251211D01*
X399134Y251232D01*
X399112Y251240D01*
X399092Y251230D01*
X398469Y250551D02*
X398549Y250551D01*
X398974Y251102D02*
X399055Y251102D01*
X402362Y251240D02*
X399114Y251240D01*
X399093Y251231D01*
X399084Y251210D01*
X399093Y251189D01*
X399114Y251181D01*
X402362Y251181D01*
X402383Y251189D01*
X402391Y251210D01*
X402383Y251231D01*
X402362Y251240D01*
X400196Y246515D02*
X398031Y246515D01*
X398010Y246507D01*
X398001Y246486D01*
X398010Y246465D01*
X398031Y246456D01*
X400196Y246456D01*
X400217Y246465D01*
X400226Y246486D01*
X400217Y246507D01*
X400196Y246515D01*
X403690Y244124D02*
X403690Y251210D01*
X403682Y251231D01*
X403661Y251240D01*
X403640Y251231D01*
X403631Y251210D01*
X403631Y244124D01*
X403640Y244103D01*
X403661Y244094D01*
X403682Y244103D01*
X403690Y244124D01*
X403631Y244645D02*
X403690Y244645D01*
X403631Y245196D02*
X403690Y245196D01*
X403631Y245748D02*
X403690Y245748D01*
X403631Y246299D02*
X403690Y246299D01*
X403631Y246850D02*
X403690Y246850D01*
X403631Y247401D02*
X403690Y247401D01*
X403631Y247952D02*
X403690Y247952D01*
X403631Y248503D02*
X403690Y248503D01*
X403631Y249055D02*
X403690Y249055D01*
X403631Y249606D02*
X403690Y249606D01*
X403631Y250157D02*
X403690Y250157D01*
X403631Y250708D02*
X403690Y250708D01*
X406909Y244153D02*
X403661Y244153D01*
X403640Y244144D01*
X403631Y244124D01*
X403640Y244103D01*
X403661Y244094D01*
X406909Y244094D01*
X406930Y244103D01*
X406938Y244124D01*
X406930Y244144D01*
X406909Y244153D01*
X407970Y245325D02*
X406887Y244143D01*
X406879Y244122D01*
X406889Y244102D01*
X406910Y244094D01*
X406931Y244104D01*
X408013Y245285D01*
X408021Y245306D01*
X408012Y245326D01*
X407990Y245334D01*
X407970Y245325D01*
X407347Y244645D02*
X407427Y244645D01*
X407852Y245196D02*
X407932Y245196D01*
X407962Y247076D02*
X407962Y245305D01*
X407971Y245284D01*
X407992Y245275D01*
X408013Y245284D01*
X408021Y245305D01*
X408021Y247076D01*
X408013Y247097D01*
X407992Y247106D01*
X407971Y247097D01*
X407962Y247076D01*
X407962Y245826D02*
X408021Y245826D01*
X407962Y246377D02*
X408021Y246377D01*
X407962Y246929D02*
X408021Y246929D01*
X406887Y248237D02*
X407970Y247056D01*
X407990Y247047D01*
X408012Y247055D01*
X408021Y247075D01*
X408013Y247096D01*
X406931Y248277D01*
X406910Y248287D01*
X406889Y248279D01*
X406879Y248259D01*
X406887Y248237D01*
X407473Y247598D02*
X407553Y247598D01*
X406968Y248149D02*
X407048Y248149D01*
X403661Y248228D02*
X406909Y248228D01*
X406930Y248236D01*
X406938Y248257D01*
X406930Y248278D01*
X406909Y248287D01*
X403661Y248287D01*
X403640Y248278D01*
X403631Y248257D01*
X403640Y248236D01*
X403661Y248228D01*
X410395Y244143D02*
X409313Y245325D01*
X409292Y245334D01*
X409271Y245326D01*
X409261Y245306D01*
X409269Y245285D01*
X410352Y244104D01*
X410372Y244094D01*
X410393Y244102D01*
X410403Y244122D01*
X410395Y244143D01*
X409855Y244645D02*
X409935Y244645D01*
X409350Y245196D02*
X409430Y245196D01*
X412539Y244153D02*
X410374Y244153D01*
X410353Y244144D01*
X410344Y244124D01*
X410353Y244103D01*
X410374Y244094D01*
X412539Y244094D01*
X412560Y244103D01*
X412568Y244124D01*
X412560Y244144D01*
X412539Y244153D01*
X413600Y245325D02*
X412517Y244143D01*
X412509Y244122D01*
X412519Y244102D01*
X412540Y244094D01*
X412561Y244104D01*
X413643Y245285D01*
X413651Y245306D01*
X413642Y245326D01*
X413620Y245334D01*
X413600Y245325D01*
X412977Y244645D02*
X413057Y244645D01*
X413482Y245196D02*
X413562Y245196D01*
X409261Y247076D02*
X409261Y245305D01*
X409270Y245284D01*
X409291Y245275D01*
X409312Y245284D01*
X409320Y245305D01*
X409320Y247076D01*
X409312Y247097D01*
X409291Y247106D01*
X409270Y247097D01*
X409261Y247076D01*
X409261Y245826D02*
X409320Y245826D01*
X409261Y246377D02*
X409320Y246377D01*
X409261Y246929D02*
X409320Y246929D01*
X410352Y248277D02*
X409269Y247096D01*
X409261Y247075D01*
X409271Y247055D01*
X409292Y247047D01*
X409313Y247056D01*
X410395Y248237D01*
X410403Y248259D01*
X410393Y248279D01*
X410372Y248287D01*
X410352Y248277D01*
X409729Y247598D02*
X409809Y247598D01*
X410234Y248149D02*
X410314Y248149D01*
X412539Y248287D02*
X410374Y248287D01*
X410353Y248278D01*
X410344Y248257D01*
X410353Y248236D01*
X410374Y248228D01*
X412539Y248228D01*
X412560Y248236D01*
X412568Y248257D01*
X412560Y248278D01*
X412539Y248287D01*
X413643Y247096D02*
X412561Y248277D01*
X412540Y248287D01*
X412519Y248279D01*
X412509Y248259D01*
X412517Y248237D01*
X413600Y247056D01*
X413620Y247047D01*
X413642Y247055D01*
X413651Y247075D01*
X413643Y247096D01*
X413103Y247598D02*
X413183Y247598D01*
X412598Y248149D02*
X412678Y248149D01*
X413651Y244124D02*
X413651Y247076D01*
X413642Y247097D01*
X413622Y247106D01*
X413601Y247097D01*
X413592Y247076D01*
X413592Y244124D01*
X413601Y244103D01*
X413622Y244094D01*
X413642Y244103D01*
X413651Y244124D01*
X413592Y244645D02*
X413651Y244645D01*
X413592Y245196D02*
X413651Y245196D01*
X413592Y245748D02*
X413651Y245748D01*
X413592Y246299D02*
X413651Y246299D01*
X413592Y246850D02*
X413651Y246850D01*
X414950Y244124D02*
X414950Y248257D01*
X414942Y248278D01*
X414921Y248287D01*
X414900Y248278D01*
X414891Y248257D01*
X414891Y244124D01*
X414900Y244103D01*
X414921Y244094D01*
X414942Y244103D01*
X414950Y244124D01*
X414891Y244645D02*
X414950Y244645D01*
X414891Y245196D02*
X414950Y245196D01*
X414891Y245748D02*
X414950Y245748D01*
X414891Y246299D02*
X414950Y246299D01*
X414891Y246850D02*
X414950Y246850D01*
X414891Y247401D02*
X414950Y247401D01*
X414891Y247952D02*
X414950Y247952D01*
X416523Y248277D02*
X414899Y246506D01*
X414891Y246484D01*
X414901Y246464D01*
X414922Y246456D01*
X414943Y246466D01*
X416567Y248237D01*
X416574Y248259D01*
X416565Y248279D01*
X416543Y248287D01*
X416523Y248277D01*
X415359Y247007D02*
X415439Y247007D01*
X415864Y247559D02*
X415944Y247559D01*
X416369Y248110D02*
X416450Y248110D01*
X419251Y248287D02*
X416545Y248287D01*
X416524Y248278D01*
X416515Y248257D01*
X416524Y248236D01*
X416545Y248228D01*
X419251Y248228D01*
X419272Y248236D01*
X419281Y248257D01*
X419272Y248278D01*
X419251Y248287D01*
X422687Y244714D02*
X422687Y244124D01*
X422695Y244103D01*
X422716Y244094D01*
X422737Y244103D01*
X422746Y244124D01*
X422746Y244714D01*
X422737Y244735D01*
X422716Y244744D01*
X422695Y244735D01*
X422687Y244714D01*
X422687Y244645D02*
X422746Y244645D01*
X423257Y244744D02*
X422716Y244744D01*
X422695Y244735D01*
X422687Y244714D01*
X422695Y244693D01*
X422716Y244685D01*
X423257Y244685D01*
X423278Y244693D01*
X423287Y244714D01*
X423278Y244735D01*
X423257Y244744D01*
X423287Y244124D02*
X423287Y244714D01*
X423278Y244735D01*
X423257Y244744D01*
X423236Y244735D01*
X423228Y244714D01*
X423228Y244124D01*
X423236Y244103D01*
X423257Y244094D01*
X423278Y244103D01*
X423287Y244124D01*
X423228Y244645D02*
X423287Y244645D01*
X422716Y244094D02*
X423257Y244094D01*
X423278Y244103D01*
X423287Y244124D01*
X423278Y244144D01*
X423257Y244153D01*
X422716Y244153D01*
X422695Y244144D01*
X422687Y244124D01*
X422695Y244103D01*
X422716Y244094D01*
X423257Y246515D02*
X422716Y246515D01*
X422695Y246507D01*
X422687Y246486D01*
X422695Y246465D01*
X422716Y246456D01*
X423257Y246456D01*
X423278Y246465D01*
X423287Y246486D01*
X423278Y246507D01*
X423257Y246515D01*
X423770Y250033D02*
X423228Y246490D01*
X423234Y246468D01*
X423253Y246457D01*
X423275Y246462D01*
X423287Y246481D01*
X423828Y250025D01*
X423823Y250047D01*
X423803Y250058D01*
X423781Y250053D01*
X423770Y250033D01*
X423307Y247008D02*
X423367Y247008D01*
X423391Y247559D02*
X423451Y247559D01*
X423476Y248110D02*
X423535Y248110D01*
X423560Y248661D02*
X423620Y248661D01*
X423644Y249212D02*
X423704Y249212D01*
X423728Y249764D02*
X423788Y249764D01*
X423231Y251198D02*
X423772Y250017D01*
X423788Y250001D01*
X423811Y250002D01*
X423826Y250019D01*
X423826Y250041D01*
X423284Y251222D01*
X423268Y251238D01*
X423245Y251237D01*
X423230Y251220D01*
X423231Y251198D01*
X423526Y250553D02*
X423591Y250553D01*
X423274Y251104D02*
X423339Y251104D01*
X422716Y251181D02*
X423257Y251181D01*
X423278Y251189D01*
X423287Y251210D01*
X423278Y251231D01*
X423257Y251240D01*
X422716Y251240D01*
X422695Y251231D01*
X422687Y251210D01*
X422695Y251189D01*
X422716Y251181D01*
X422202Y250017D02*
X422743Y251198D01*
X422744Y251220D01*
X422728Y251237D01*
X422706Y251238D01*
X422689Y251222D01*
X422148Y250041D01*
X422147Y250019D01*
X422162Y250002D01*
X422185Y250001D01*
X422202Y250017D01*
X422382Y250553D02*
X422447Y250553D01*
X422635Y251104D02*
X422700Y251104D01*
X422745Y246490D02*
X422204Y250033D01*
X422192Y250053D01*
X422170Y250058D01*
X422151Y250047D01*
X422146Y250025D01*
X422687Y246481D01*
X422699Y246462D01*
X422720Y246457D01*
X422740Y246468D01*
X422745Y246490D01*
X422606Y247008D02*
X422666Y247008D01*
X422522Y247559D02*
X422582Y247559D01*
X422438Y248110D02*
X422498Y248110D01*
X422354Y248661D02*
X422414Y248661D01*
X422270Y249212D02*
X422329Y249212D01*
X422185Y249764D02*
X422245Y249764D01*
G54D16*
X17500Y198750D02*
X36250Y180000D01*
X36250Y175000D01*
X36250Y130000D02*
X36250Y158750D01*
X36250Y130000D02*
X31250Y123750D01*
X15000Y123750D01*
X211250Y148750D02*
X233750Y148750D01*
G54D18*
X113750Y121250D02*
X113750Y8750D01*
X113750Y121250D02*
X71250Y166250D01*
X212500Y220000D02*
X212500Y213750D01*
X218750Y226250D02*
X212500Y220000D01*
X286250Y226250D02*
X218750Y226250D01*
X286250Y226250D02*
X292500Y220000D01*
X292500Y211250D01*
X212500Y161250D02*
X212500Y213750D01*
X212500Y161250D02*
X172500Y121250D01*
X113750Y121250D01*
X25000Y166250D02*
X71250Y166250D01*
X25000Y166250D02*
X15000Y153750D01*
G54D20*
X15000Y153750D03*
G54D21*
X36250Y175000D03*
X36250Y158750D03*
X211250Y148750D03*
X233750Y148750D03*
G54D22*
X63750Y8750D03*
X73750Y8750D03*
X83750Y8750D03*
X93750Y8750D03*
X103750Y8750D03*
X113750Y8750D03*
X123750Y8750D03*
X153750Y8750D03*
X163750Y8750D03*
X173750Y8750D03*
X183750Y8750D03*
X193750Y8750D03*
X133750Y198750D03*
X143750Y198750D03*
X153750Y198750D03*
X163750Y198750D03*
X173750Y198750D03*
X183750Y198750D03*
X193750Y198750D03*
X27500Y198750D03*
X37500Y198750D03*
X47500Y198750D03*
X57500Y198750D03*
X67500Y198750D03*
X77500Y198750D03*
X87500Y198750D03*
X97500Y198750D03*
X107500Y198750D03*
X222500Y213750D03*
X232500Y213750D03*
G54D23*
X222500Y16250D03*
X252500Y16250D03*
G54D24*
X273750Y16250D03*
X283750Y16250D03*
X292500Y211250D03*
X272500Y211250D03*
G54D25*
X15000Y143750D03*
X15000Y133750D03*
X15000Y123750D03*
G54D26*
X53750Y8750D03*
X143750Y8750D03*
X123750Y198750D03*
X17500Y198750D03*
X212500Y213750D03*
M02*
